/* XPM */
static char * logan_mail_xpm[] = {
"48 48 15 1",
" 	c None",
".	c #8E8E8E",
"+	c #FFFFFF",
"@	c #DDDDDD",
"#	c #8E6B6B",
"$	c #7F4D4D",
"%	c #D4D4D4",
"&	c #9F9F9F",
"*	c #A8A8A8",
"=	c #969696",
"-	c #B9B9B9",
";	c #C2C2C2",
">	c #CBCBCB",
",	c #B1B1B1",
"'	c #6B6B6B",
"                                                ",
"                                                ",
"                                           ...  ",
"                                           ...  ",
"                                           ...  ",
"                                           ...  ",
"                                           ...  ",
"    ++++++++++++++++++++++++++++++++++     ...  ",
"    +@@@@@@@@@@@@@@@@@@@@@@@@@@@@@@@@.     ...  ",
"    +@@@@@@@@@@@@@@@@@@@@@@@@@@@####@.     ...  ",
"    +@@@@@@@@@@@@@@@@@@@@@@@@@@@#$$#@.     ...  ",
"    +@@@@@@@@@@@@@@@@@@@@@@@@@@@#$$#@.     ...  ",
"    +@@@@@@@@@@@@@@@@@@@@@@@@@@@#$$#@.     ...  ",
"    +@@@@@@@@@@@@@@@@@@@@@@@@@@@####@.     ...  ",
"    +@@@@@@@@@@@@@@@@@@@@@@@@@@@@@@@@.     ...  ",
"    +@@@@@@@@@@@@@@@@@@@@@@@@@@@@@@@@.     ...  ",
"    +@@@@@@@@%@@@@@@@@@@@@@@@@@@@@@@@.     ...  ",
"    +@@@@@@@@.&*=&.*.&..-@@@@@@@@@@@@.     ...  ",
"    +@@@@@@@@@@@@@@@@@@@@@@@@@@@@@@@@.     ...  ",
"    +@@@@@@@@;>>>@@@@%%@@%@@@@@@@@@@@.     ...  ",
"    +@@@@@@@@,.=.=.*,=.&=;@@@@@@@@@@@.     ...  ",
"    +@@@@@@@@@@@@@>@@@@@>>;;>>%@@@@@@.     ...  ",
"    +@@@@@@@@.&....&&&>==,.=&.,@@@@@@.     ...  ",
"    +@@@@@@@@@@@@@@@@@@@@@@@@@@@@@@@@.     ...  ",
"    +@@@@@@@@@@@@@@@@@@@@@@@@@@@@@@@@.     ...  ",
"    +@@@@@@@@@@@@@@@@@@@@@@@@@@@@@@@@.     ...  ",
"    +@@@@@@@@@@@@@@@@@@@@@@@@@@@@@@@@.     ...  ",
"    ..................................     ...  ",
"                                           ...  ",
"                                           ...  ",
"                                           ...  ",
"                                           ...  ",
"                                           ...  ",
"                                           ...  ",
"             +++++++++++++++++++++++++++++++++' ",
"             +@@@@@@@@@@@@@@@@@@@@@@@@@@@@@@@@' ",
"             +@@@@@@@@@@@@@@@@@@@@@@,;@*=;@@@@' ",
"             +@@@@@@@@@@@@@@@@@@@@@;..@;.;@@@@' ",
"             +@@@@@@@@@@@@@@@@@@@@@@;%@;.;@@@@' ",
"             +@@@-&.-=.-,.=%@;=*.,@>=.@;.;@@@@' ",
"             +@@@@*.%%.=@-.;@*,@*.@@*.@;.;@@@@' ",
"             +@@@@*.@@.*@;.;@%>,=.@@*.@;.;@@@@' ",
"             +@@@@*.@@.*@;.;@*=%*.@@*.@;.;@@@@' ",
"  ...........+@@@@*.@@.*@;.;@.&@*.@@*.@;.;@@@@' ",
"  ...........+@@@-=.--.=>&.&>*.&*.*-=.-&.&>@@@' ",
"  ...........+@@@@@@@@@@@@@@@@@@@@@@@@@@@@@@@@' ",
"             '''''''''''''''''''''''''''''''''' ",
"                                                "};
