/* XPM */
static char * logan_files_xpm[] = {
"48 48 20 1",
" 	c None",
".	c #8E8E8E",
"+	c #C9C9C9",
"@	c #494949",
"#	c #B5B5B5",
"$	c #AFAFAF",
"%	c #606060",
"&	c #A8A8A8",
"*	c #2BFF75",
"=	c #939393",
"-	c #FFFFFF",
";	c #6B6B6B",
">	c #DDDDDD",
",	c #D4D4D4",
"'	c #9F9F9F",
")	c #969696",
"!	c #B1B1B1",
"~	c #C2C2C2",
"{	c #B9B9B9",
"]	c #CBCBCB",
"                                                ",
"                                                ",
"                                           ...  ",
"                                           ...  ",
"                                           ...  ",
"                                           ...  ",
"                                           ...  ",
"        +++++++++++++++++++++++++++++++@   ...  ",
"       +##############################$@   ...  ",
"      +##############################$%@   ...  ",
"     +##############################$%%@   ...  ",
"    +##############################$%%%@   ...  ",
"   +++++++++++++++++++++++++++++++$%%%%@   ...  ",
"   +&&&&&&&&&&&&&&&&&&&&&&&&&&&&&&@%%%%@   ...  ",
"   +&&&&&&&&&&&&&&&&&&&&&&&&&&&&&&@%%%%@   ...  ",
"   +&&&&&&&&&&&&&&&&&&&&&&&&&&&&&&@%%%%@   ...  ",
"   +&&&&&&&&&&&&&&&&&&&&&&***=&&&&@%%%%@   ...  ",
"   +&&&&&&&&&&&&&&&&&&&&&&====&&&&@%%%%@   ...  ",
"   +&&&&&&&&&&&&&&&&&&&&&&&&&&&&&&@%%%%@   ...  ",
"   +&&==========================&&@%%%%@   ...  ",
"   +&&&&&&&&&&&&&&&&&&&&&&&&&&&&&&@%%%%@   ...  ",
"   +&&==========================&&@%%%%@   ...  ",
"   +&&&&&&&&&&&&&&&&&&&&&&&&&&&&&&@%%%@    ...  ",
"   +&&==========================&&@%%@     ...  ",
"   +&&&&&&&&&&&&&&&&&&&&&&&&&&&&&&@%@      ...  ",
"   +&&&&&&&&&&&&&&&&&&&&&&&&&&&&&&@@       ...  ",
"   $@@@@@@@@@@@@@@@@@@@@@@@@@@@@@@@        ...  ",
"                                           ...  ",
"                                           ...  ",
"                                           ...  ",
"                                           ...  ",
"                                           ...  ",
"                                           ...  ",
"                                           ...  ",
"             ---------------------------------; ",
"             ->>>>>>>>>>>>>>>>>>>>>>>>>>>>>>>>; ",
"             ->>>>>,')&!~>&)~>>>>>>>>>>>>>>>>>; ",
"             ->>>>>!'~...>~.~>>>>>>>>>>>>>>>>>; ",
"             ->>>>>&.>>~,>~.~>>>>>>>>>>>>>>>>>; ",
"             ->>>>{).&]).>~.~>,'&.!>~)&)]>>>>>; ",
"             ->>>>>&.>>&.>~.~>''>{.].'>{~>>>>>; ",
"             ->>>>>&.>>&.>~.~>.)&'.~'.)!>>>>>>; ",
"             ->>>>>&.>>&.>~.~>.&>>>>,!).!>>>>>; ",
"  ...........->>>>>&.>>&.>~.~>'.,>!,'>,.&>>>>>; ",
"  ...........->>>>{).&{).{'.'],).)~>')&',>>>>>; ",
"  ...........->>>>>>>>>>>>>>>>>>>>>>>>>>>>>>>>; ",
"             ;;;;;;;;;;;;;;;;;;;;;;;;;;;;;;;;;; ",
"                                                "};
