/* XPM */
static char * logan_graphics_xpm[] = {
"48 48 184 2",
"  	c None",
". 	c #000000",
"+ 	c #477F8E",
"@ 	c #498190",
"# 	c #457D8C",
"$ 	c #407887",
"% 	c #4D8594",
"& 	c #4C8493",
"* 	c #417988",
"= 	c #4A8291",
"- 	c #558D9C",
"; 	c #5C94A3",
"> 	c #3E7685",
", 	c #336B7A",
"' 	c #538B9A",
") 	c #376F7E",
"! 	c #548C9B",
"~ 	c #8E8E8E",
"{ 	c #427A89",
"] 	c #447C8B",
"^ 	c #3B7382",
"/ 	c #2F6776",
"( 	c #437B8A",
"_ 	c #5B93A2",
": 	c #3A7281",
"< 	c #265E6D",
"[ 	c #38707F",
"} 	c #4E8695",
"| 	c #48808F",
"1 	c #4F8796",
"2 	c #508897",
"3 	c #467E8D",
"4 	c #397180",
"5 	c #3D7584",
"6 	c #306877",
"7 	c #568E9D",
"8 	c #528A99",
"9 	c #4B8392",
"0 	c #356D7C",
"a 	c #58909F",
"b 	c #5A92A1",
"c 	c #326A79",
"d 	c #578F9E",
"e 	c #518998",
"f 	c #6098A7",
"g 	c #649CAB",
"h 	c #3F7786",
"i 	c #69A1B0",
"j 	c #639BAA",
"k 	c #68A0AF",
"l 	c #316978",
"m 	c #2D6574",
"n 	c #366E7D",
"o 	c #3C7483",
"p 	c #2C6473",
"q 	c #5991A0",
"r 	c #5E96A5",
"s 	c #346C7B",
"t 	c #5D95A4",
"u 	c #629AA9",
"v 	c #2B6372",
"w 	c #2E6675",
"x 	c #2A6271",
"y 	c #5F97A6",
"z 	c #527753",
"A 	c #4A7284",
"B 	c #6199A8",
"C 	c #5F3447",
"D 	c #65384C",
"E 	c #6C3B50",
"F 	c #4B6D4C",
"G 	c #476F81",
"H 	c #679FAE",
"I 	c #6CA4B3",
"J 	c #64364A",
"K 	c #6A3A4F",
"L 	c #703D54",
"M 	c #446345",
"N 	c #497183",
"O 	c #68394D",
"P 	c #6E3C52",
"Q 	c #754057",
"R 	c #3D593E",
"S 	c #436B7D",
"T 	c #456D7F",
"U 	c #446C7E",
"V 	c #4E7688",
"W 	c #487082",
"X 	c #3E6678",
"Y 	c #4B7385",
"Z 	c #426A7C",
"` 	c #4D7587",
" .	c #3A1F2B",
"..	c #402330",
"+.	c #462634",
"@.	c #4D2A39",
"#.	c #532D3E",
"$.	c #593142",
"%.	c #603447",
"&.	c #66384C",
"*.	c #6C3B51",
"=.	c #733F55",
"-.	c #79425A",
";.	c #364F37",
">.	c #4F7789",
",.	c #50788A",
"'.	c #547C8E",
").	c #4C7486",
"!.	c #41697B",
"~.	c #527A8C",
"{.	c #537B8D",
"].	c #3E222E",
"^.	c #442533",
"/.	c #4B2938",
"(.	c #512C3C",
"_.	c #573041",
":.	c #5E3346",
"<.	c #64374A",
"[.	c #713E54",
"}.	c #774159",
"|.	c #7A435B",
"1.	c #2F4530",
"2.	c #567E90",
"3.	c #588092",
"4.	c #51798B",
"5.	c #466E80",
"6.	c #5B8395",
"7.	c #422431",
"8.	c #492836",
"9.	c #4F2B3B",
"0.	c #552F40",
"a.	c #5C3244",
"b.	c #623649",
"c.	c #68394E",
"d.	c #6F3D52",
"e.	c #293B29",
"f.	c #3F6779",
"g.	c #472735",
"h.	c #532E3E",
"i.	c #5A3143",
"j.	c #603548",
"k.	c #6D3C51",
"l.	c #733F56",
"m.	c #223122",
"n.	c #512D3D",
"o.	c #583041",
"p.	c #65374B",
"q.	c #6B3A50",
"r.	c #784159",
"s.	c #1B271B",
"t.	c #557D8F",
"u.	c #502B3B",
"v.	c #562F40",
"w.	c #5C3245",
"x.	c #633649",
"y.	c #69394E",
"z.	c #6F3D53",
"A.	c #764058",
"B.	c #141D14",
"C.	c #542E3E",
"D.	c #613548",
"E.	c #67384D",
"F.	c #743F56",
"G.	c #0D130D",
"H.	c #583042",
"I.	c #5F3446",
"J.	c #6B3B50",
"K.	c #723E55",
"L.	c #784259",
"M.	c #FFFFFF",
"N.	c #B3B3B3",
"O.	c #A7A7A7",
"P.	c #9A9A9A",
"Q.	c #F2F2F2",
"R.	c #6B6B6B",
"S.	c #DDDDDD",
"T.	c #CBCBCB",
"U.	c #969696",
"V.	c #C2C2C2",
"W.	c #B1B1B1",
"X.	c #9F9F9F",
"Y.	c #A8A8A8",
"Z.	c #B9B9B9",
"`.	c #D4D4D4",
"                                                                                                ",
"                                . . . . . . . . . . . . . . . . . . . .                         ",
"                                . + @ # $ % & * = * $ - ; > , ' @ ) ! .               ~ ~ ~     ",
"                                . { ] ^ / { ( , # > ) ' _ : < * > / % .               ~ ~ ~     ",
"                                . # & % * % % [ } | ) 1 ; & ] 2 3 , 1 .               ~ ~ ~     ",
"                                . 4 5 ^ > 2 ( 6 @ * [ % % 5 @ 7 + , $ .               ~ ~ ~     ",
"                                . 8 ' # ] _ 9 ^ 1 ^ 0 a b c 5 b 9 6 ) .               ~ ~ ~     ",
"                                . d b e 1 f b e g - h - i $ [ j k & 3 .               ~ ~ ~     ",
"                                . h * l / ( ] $ 1 # 6 0 2 ^ m 3 # [ 5 .               ~ ~ ~     ",
"                                . h 1 5 n ] 5 [ % + o h } h ^ = 4 p * .               ~ ~ ~     ",
"                                . & ; 3 ( 7 3 > d ' 1 q r @ 9 _ 9 5 % .               ~ ~ ~     ",
"                                . 3 ' [ n a $ ) e ] c ( & s h t - 0 4 .               ~ ~ ~     ",
"                                . 9 b & h f 1 h b r * | d ] h d t 4 4 .               ~ ~ ~     ",
"                                . ] 9 $ : ' 2 5 = } > ( 7 9 ^ ! u # $ .               ~ ~ ~     ",
"                                . h # 4 p > * v 4 : w w $ : x 5 # ) , .               ~ ~ ~     ",
"                                . ' t - { 1 _ @ 8 y 7 9 - 1 @ 9 { $ * .               ~ ~ ~     ",
"                                . $ = ] o & & $ | 7 & | 1 * @ _ ' ] o .               ~ ~ ~     ",
"    . . . . . . . . . . . . . . . / ^ n / ] 5 < p # 4 6 : / m o $ , m . . . . .       ~ ~ ~     ",
"    . z z z z z z z z z z z . A . d q - @ b ; * h ; B - d | h } d + 3 . C D E .       ~ ~ ~     ",
"    . F F F F F F F F F F F . G . ' e ' ! y t h { ' ; j H d 9 ; I b e . J K L .       ~ ~ ~     ",
"    . M M M M M M M M M M M . N . . . . . . . . . . . . . . . . . . . . O P Q .       ~ ~ ~     ",
"    . R R R R R R R R R R R . S T U T V W X Y G Z ` ` .  ...+.@.#.$.%.&.*.=.-..       ~ ~ ~     ",
"    . ;.;.;.;.;.;.;.;.;.;.;.. >.,.N W '.).U V U !.~.{.. ].^./.(._.:.<.K [.}.|..       ~ ~ ~     ",
"    . 1.1.1.1.1.1.1.1.1.1.1.. ~.{.>.V 2.{.>.3.4.5.4.6.. 7.8.9.0.a.b.c.d.Q |.|..       ~ ~ ~     ",
"    . e.e.e.e.e.e.e.e.e.e.e.. 5.G f.X W W 5.V N X !.V . g.@.h.i.j.&.k.l.|.|.|..       ~ ~ ~     ",
"    . m.m.m.m.m.m.m.m.m.m.m.. 5.V T !.W T Z ` A U 5.` . /.n.o.:.p.q.[.r.|.|.|..       ~ ~ ~     ",
"    . s.s.s.s.s.s.s.s.s.s.s.. ).'.N W 4.N T ~.,.V {.t.. u.v.w.x.y.z.A.|.|.|.|..       ~ ~ ~     ",
"    . B.B.B.B.B.B.B.B.B.B.B.. N ,.Z !.~.5.Z >.W f.W ).. C.i.D.E.k.F.|.|.|.|.|..       ~ ~ ~     ",
"    . G.G.G.G.G.G.G.G.G.G.G.. ).{.).5.2.V 5.{.t.G A ~.. H.I.p.J.K.L.|.|.|.|.|..       ~ ~ ~     ",
"    . . . . . . . . . . . . . . . . . . . . . . . . . . . . . . . . . . . . . .       ~ ~ ~     ",
"                                                                                      ~ ~ ~     ",
"                                                                                      ~ ~ ~     ",
"                                                                                      ~ ~ ~     ",
"                                                                                      ~ ~ ~     ",
"                          M.M.M.M.M.M.M.M.M.M.M.M.M.M.M.M.N.O.P.Q.M.M.M.M.M.M.M.M.M.M.M.M.M.R.  ",
"                          M.S.S.S.S.S.S.S.S.S.S.S.S.S.S.T.~ T.U.T.S.S.S.S.S.S.S.S.S.S.S.S.S.R.  ",
"                          M.S.S.S.S.S.S.S.S.S.S.S.S.S.S.V.~ V.S.S.S.S.S.S.S.S.S.S.S.S.S.S.S.R.  ",
"                          M.S.S.S.S.S.S.S.S.W.U.X.X.X.Y.X.~ X.Y.~ ~ T.X.U.T.S.S.S.S.S.S.S.S.R.  ",
"                          M.S.S.S.S.S.S.S.V.~ V.S.~ W.S.V.~ V.S.Z.~ Z.X.S.S.S.S.S.S.S.S.S.S.R.  ",
"                          M.S.S.S.S.S.S.S.T.~ Z.S.~ W.S.V.~ V.S.S.Y.~ V.S.S.S.S.S.S.S.S.S.S.R.  ",
"                          M.S.S.S.S.S.S.S.S.W.U.X.X.`.S.V.~ V.S.S.Z.~ X.S.S.S.S.S.S.S.S.S.S.R.  ",
"                          M.S.S.S.S.S.S.S.T.U.W.V.V.S.S.V.~ V.S.`.Y.Z.~ Z.S.S.S.S.S.S.S.S.S.R.  ",
"                          M.S.S.S.S.S.S.S.`.X.~ ~ ~ U.V.X.~ X.Y.U.Z.T.~ ~ Y.S.S.S.S.S.S.S.S.R.  ",
"    ~ ~ ~ ~ ~ ~ ~ ~ ~ ~ ~ M.S.S.S.S.S.S.S.V.~ T.S.V.~ V.S.S.S.S.S.S.S.S.S.S.S.S.S.S.S.S.S.S.R.  ",
"    ~ ~ ~ ~ ~ ~ ~ ~ ~ ~ ~ M.S.S.S.S.S.S.S.W.~ `.S.`.U.`.S.S.S.S.S.S.S.S.S.S.S.S.S.S.S.S.S.S.R.  ",
"    ~ ~ ~ ~ ~ ~ ~ ~ ~ ~ ~ M.S.S.S.S.S.S.S.S.Z.Y.Y.Z.`.S.S.S.S.S.S.S.S.S.S.S.S.S.S.S.S.S.S.S.R.  ",
"                          R.R.R.R.R.R.R.R.R.R.R.R.R.R.R.R.R.R.R.R.R.R.R.R.R.R.R.R.R.R.R.R.R.R.  ",
"                                                                                                "};
