/* XPM */
static char * logan_web_xpm[] = {
"48 48 235 2",
"  	c None",
". 	c #284E97",
"+ 	c #294D98",
"@ 	c #294E99",
"# 	c #2A4F99",
"$ 	c #284D96",
"% 	c #264B92",
"& 	c #25488E",
"* 	c #294E98",
"= 	c #284C94",
"- 	c #274A90",
"; 	c #26488B",
"> 	c #254687",
", 	c #244383",
"' 	c #213F7D",
") 	c #8E8E8E",
"! 	c #26488C",
"~ 	c #254688",
"{ 	c #244484",
"] 	c #23417F",
"^ 	c #213F7B",
"/ 	c #1F3C76",
"( 	c #284D98",
"_ 	c #294D95",
": 	c #274A91",
"< 	c #26488D",
"[ 	c #234280",
"} 	c #22407C",
"| 	c #203D78",
"1 	c #1F3B73",
"2 	c #1E396F",
"3 	c #1B3569",
"4 	c #294D96",
"5 	c #284B91",
"6 	c #26498D",
"7 	c #254689",
"8 	c #244485",
"9 	c #234281",
"0 	c #213E78",
"a 	c #1F3C74",
"b 	c #1E3970",
"c 	c #1D376B",
"d 	c #1C3567",
"e 	c #193261",
"f 	c #294E97",
"g 	c #284B92",
"h 	c #27498E",
"i 	c #25478A",
"j 	c #244585",
"k 	c #22407D",
"l 	c #213E79",
"m 	c #203C75",
"n 	c #1E3A70",
"o 	c #1D386C",
"p 	c #1C3568",
"q 	c #1B3364",
"r 	c #1A3160",
"s 	c #182E5A",
"t 	c #284B93",
"u 	c #26478A",
"v 	c #244586",
"w 	c #234382",
"x 	c #22417D",
"y 	c #1F3A71",
"z 	c #1D386D",
"A 	c #1C3669",
"B 	c #1B3464",
"C 	c #192F5C",
"D 	c #182D58",
"E 	c #284C93",
"F 	c #274A8F",
"G 	c #26478B",
"H 	c #254587",
"I 	c #22417E",
"J 	c #213F7A",
"K 	c #203D76",
"L 	c #1E386D",
"M 	c #1B3465",
"N 	c #1A3261",
"O 	c #19305D",
"P 	c #172B54",
"Q 	c #14284F",
"R 	c #22417F",
"S 	c #1F3B72",
"T 	c #1E396E",
"U 	c #1D366A",
"V 	c #1C3466",
"W 	c #182E59",
"X 	c #172B55",
"Y 	c #162951",
"Z 	c #15274C",
"` 	c #244483",
" .	c #203D77",
"..	c #1D376A",
"+.	c #1B3262",
"@.	c #19305E",
"#.	c #172C55",
"$.	c #162A51",
"%.	c #15274D",
"&.	c #142549",
"*.	c #112244",
"=.	c #1B3362",
"-.	c #1A305E",
";.	c #172C56",
">.	c #162A52",
",.	c #15284E",
"'.	c #142649",
").	c #132345",
"!.	c #112141",
"~.	c #1B3363",
"{.	c #1A315F",
"].	c #192F5B",
"^.	c #172C57",
"/.	c #14264A",
"(.	c #132446",
"_.	c #122242",
":.	c #101F3D",
"<.	c #0D1B37",
"[.	c #182D57",
"}.	c #162B53",
"|.	c #15284F",
"1.	c #14264B",
"2.	c #11203E",
"3.	c #0F1E3A",
"4.	c #15294F",
"5.	c #14274B",
"6.	c #132447",
"7.	c #122243",
"8.	c #101E3A",
"9.	c #0E1C36",
"0.	c #515151",
"a.	c #162950",
"b.	c #14274C",
"c.	c #132548",
"d.	c #122343",
"e.	c #11203F",
"f.	c #101E3B",
"g.	c #0F1C37",
"h.	c #0E1A33",
"i.	c #0B172D",
"j.	c #122344",
"k.	c #112140",
"l.	c #101E3C",
"m.	c #0D182F",
"n.	c #0D172C",
"o.	c #122345",
"p.	c #B2B2B2",
"q.	c #FFFFFF",
"r.	c #F8F8F8",
"s.	c #F1F1F1",
"t.	c #E9E9E9",
"u.	c #E2E2E2",
"v.	c #DADADA",
"w.	c #D3D3D3",
"x.	c #565656",
"y.	c #284C95",
"z.	c #0F1D39",
"A.	c #FDFDFD",
"B.	c #F5F5F5",
"C.	c #EEEEEE",
"D.	c #E6E6E6",
"E.	c #DFDFDF",
"F.	c #D7D7D7",
"G.	c #274990",
"H.	c #0E1B36",
"I.	c #FAFAFA",
"J.	c #F2F2F2",
"K.	c #EBEBEB",
"L.	c #E3E3E3",
"M.	c #DCDCDC",
"N.	c #D4D4D4",
"O.	c #0D1A32",
"P.	c #F7F7F7",
"Q.	c #EFEFEF",
"R.	c #E8E8E8",
"S.	c #E0E0E0",
"T.	c #D9D9D9",
"U.	c #244486",
"V.	c #0C182E",
"W.	c #FBFBFB",
"X.	c #F4F4F4",
"Y.	c #ECECEC",
"Z.	c #E5E5E5",
"`.	c #DDDDDD",
" +	c #D6D6D6",
".+	c #0B162B",
"++	c #203E7A",
"@+	c #101F3C",
"#+	c #0F1D38",
"$+	c #0E1A34",
"%+	c #0C162B",
"&+	c #0A1427",
"*+	c #15284D",
"=+	c #0E1B34",
"-+	c #0D1930",
";+	c #0C162C",
">+	c #0B1428",
",+	c #091223",
"'+	c #1C376E",
")+	c #0E1B35",
"!+	c #0D1931",
"~+	c #0C172C",
"{+	c #0B1528",
"]+	c #0A1224",
"^+	c #081020",
"/+	c #1B3367",
"(+	c #0C172D",
"_+	c #0B1529",
":+	c #0A1325",
"<+	c #091121",
"[+	c #19305F",
"}+	c #0C172E",
"|+	c #0B152A",
"1+	c #080F1D",
"2+	c #4CFF99",
"3+	c #162A53",
"4+	c #0A1326",
"5+	c #091122",
"6+	c #080F1E",
"7+	c #060C18",
"8+	c #0A1426",
"9+	c #060B19",
"0+	c #0F1E3B",
"a+	c #0E1C37",
"b+	c #0D1833",
"c+	c #091226",
"d+	c #071022",
"e+	c #6B6B6B",
"f+	c #A8A8A8",
"g+	c #969696",
"h+	c #C2C2C2",
"i+	c #9F9F9F",
"j+	c #B9B9B9",
"k+	c #B1B1B1",
"l+	c #CBCBCB",
"                                                                                                ",
"                              . + @ # $ % &                                                     ",
"                        * # # # # # * = - ; > , '                                     ) ) )     ",
"                      * # # # # # # = - ! ~ { ] ^ /                                   ) ) )     ",
"                  ( # # # # # # # _ : < ~ { [ } | 1 2 3                               ) ) )     ",
"                + # # # # # # # 4 5 6 7 8 9 } 0 a b c d e                             ) ) )     ",
"              f # # # # # # # 4 g h i j 9 k l m n o p q r s                           ) ) )     ",
"              # # # # # # # f t h u v w x l m y z A B r C D                           ) ) )     ",
"            @ # # # # # # f E F G H w I J K y L A M N O D P Q                         ) ) )     ",
"            # # # # # # * = - ; > , R J K S T U V N O W X Y Z                         ) ) )     ",
"          @ # # # # # # = - ! ~ ` ] ^  .1 2 ..V +.@.W #.$.%.&.*.                      ) ) )     ",
"          # # # # # # _ : < ~ { [ } | 1 2 c d =.-.s ;.>.,.'.).!.                      ) ) )     ",
"        + # # # # # 4 5 6 7 8 9 } 0 a b c d ~.{.].^.>.,./.(._.:.<.                    ) ) )     ",
"        * # # # # 4 g h i j 9 k l m n o p q r ].[.}.|.1.(._.2.3.) )                   ) ) )     ",
"        * # # # f t h u v w x l m y z A B r C D P 4.5.6.7.2.8.9.0.)                   ) ) )     ",
"        * # # f E F G H w I J K y L A M N O D P a.b.c.d.e.f.g.h.i.)                   ) ) )     ",
"        # # * = - ; > , R J K S T U V N O W X Y Z c.j.k.l.g.h.m.n.)                   ) ) )     ",
"        * # = - ! ~ ` ] ^  .1 2 ..V +.@.W #.$.%.&.o.k.p.p.p.p.p.p.p.p.p.p.p.p.p.      ) ) )     ",
"        * _ : < ~ { [ } | 1 2 c d =.-.s ;.>.,.'.).!.:.p.q.q.q.q.q.r.s.t.u.v.w.x.      ) ) )     ",
"        y.5 6 7 8 9 } 0 a b c d ~.{.].^.>.,./.(._.:.z.p.q.q.q.q.A.B.C.D.E.F.w.x.      ) ) )     ",
"        G.h i j 9 k l m n o p q r ].[.}.|.1.(._.2.3.H.p.q.q.q.q.I.J.K.L.M.N.w.x.      ) ) )     ",
"          u v w x l m y z A B r C D P 4.5.6.7.2.8.9.O.p.q.q.q.q.P.Q.R.S.T.w.w.x.      ) ) )     ",
"          U.w I J K y L A M N O D P a.b.c.d.e.f.g.h.V.p.q.q.q.W.X.Y.Z.`. +w.w.x.      ) ) )     ",
"            R J K S T U V N O W X Y Z c.j.k.f.g.h.m..+p.q.q.q.r.s.t.u.v.w.w.w.x.      ) ) )     ",
"            ++ .1 2 ..V +.@.W #.$.%.&.o.k.@+#+$+m.%+&+p.q.q.A.B.C.D.E.F.w.w.w.x.      ) ) )     ",
"              1 2 c d =.-.s ;.>.*+'.).!.:.#+=+-+;+>+,+p.q.q.I.J.K.L.M.N.w.w.w.x.      ) ) )     ",
"              '+c d ~.{.].;.>.,./.(._.:.z.)+!+~+{+]+^+p.x.x.x.x.x.x.x.x.x.x.x.x.      ) ) )     ",
"                /+q r ].[.}.|.1.(._.2.3.H.!+(+_+:+<+p.p.p.p.p.p.p.p.p.p.p.p.p.p.p.    ) ) )     ",
"                  [+C D P 4.5.6.7.2.8.9.O.}+|+:+<+1+p.) ) ) ) ) ) ) ) ) ) 2+2+) x.    ) ) )     ",
"                      3+a.b.c.d.e.f.g.h.V.|+4+5+6+7+p.) ) ) ) ) ) ) ) ) ) ) ) ) x.    ) ) )     ",
"                        1.c.j.k.l.g.h.m..+8+5+6+9+  p.x.x.x.x.x.x.x.x.x.x.x.x.x.x.    ) ) )     ",
"                              0+a+b+m.|+c+d+                                          ) ) )     ",
"                                                                                      ) ) )     ",
"                                                                                      ) ) )     ",
"                          q.q.q.q.q.q.q.q.q.q.q.q.q.q.q.q.q.q.q.q.q.q.q.q.q.q.q.q.q.q.q.q.q.e+  ",
"                          q.`.`.`.`.`.`.`.`.`.`.`.`.`.`.`.`.`.`.`.`.`.`.`.`.`.`.`.`.`.`.`.`.e+  ",
"                          q.`.`.`.`.`.`.`.`.`.`.`.`.`.`.`.`.`.`.`.`.f+g+h+`.`.`.`.`.`.`.`.`.e+  ",
"                          q.`.`.`.`.`.`.`.`.`.`.`.`.`.`.`.`.`.`.`.`.h+) h+`.`.`.`.`.`.`.`.`.e+  ",
"                          q.`.`.`.`.`.`.`.`.`.`.`.`.`.`.`.`.`.`.`.`.h+) h+`.`.`.`.`.`.`.`.`.e+  ",
"                          q.`.`.`.`.g+) i+`.f+g+`.j+) j+N.i+f+) k+`.h+) k+i+) k+`.`.`.`.`.`.e+  ",
"                          q.`.`.`.`.j+) f+`.g+) l+`.f+`.i+i+`.j+) l+h+) j+`.f+) N.`.`.`.`.`.e+  ",
"                          q.`.`.`.`.N.) g+N.i+) j+h+h+`.) g+f+i+) h+h+) h+`.h+) h+`.`.`.`.`.e+  ",
"                          q.`.`.`.`.`.i+) j+h+g+i+f+`.`.) f+`.`.`.`.h+) h+`.h+) h+`.`.`.`.`.e+  ",
"    ) ) ) ) ) ) ) ) ) ) ) q.`.`.`.`.`.j+) ) `.k+) i+`.`.i+) N.`.k+N.h+) h+`.j+) N.`.`.`.`.`.e+  ",
"    ) ) ) ) ) ) ) ) ) ) ) q.`.`.`.`.`.N.) f+`.l+) k+`.`.N.g+) g+h+`.h+i+i+f+g+h+`.`.`.`.`.`.e+  ",
"    ) ) ) ) ) ) ) ) ) ) ) q.`.`.`.`.`.`.`.`.`.`.`.`.`.`.`.`.`.`.`.`.`.`.`.`.`.`.`.`.`.`.`.`.e+  ",
"                          e+e+e+e+e+e+e+e+e+e+e+e+e+e+e+e+e+e+e+e+e+e+e+e+e+e+e+e+e+e+e+e+e+e+  ",
"                                                                                                "};
