/* XPM */
static char * logan_video_xpm[] = {
"48 48 136 2",
"  	c None",
". 	c #C4C4C4",
"+ 	c #848484",
"@ 	c #8E8E8E",
"# 	c #444444",
"$ 	c #000000",
"% 	c #777777",
"& 	c #356889",
"* 	c #346686",
"= 	c #326383",
"- 	c #316180",
"; 	c #305F7D",
"> 	c #2F5D7B",
", 	c #2E5B78",
"' 	c #2D5875",
") 	c #2C5672",
"! 	c #B2B2B2",
"~ 	c #346687",
"{ 	c #336484",
"] 	c #326281",
"^ 	c #31607E",
"/ 	c #2F5E7B",
"( 	c #2E5B79",
"_ 	c #2D5976",
": 	c #2C5773",
"< 	c #2B5570",
"[ 	c #346788",
"} 	c #336585",
"| 	c #326382",
"1 	c #31607F",
"2 	c #305E7C",
"3 	c #2F5C79",
"4 	c #2E5A77",
"5 	c #2C5874",
"6 	c #2B5571",
"7 	c #2A536E",
"8 	c #2F5D7A",
"9 	c #2E5B77",
"0 	c #2B546F",
"a 	c #29526C",
"b 	c #30607E",
"c 	c #2D5975",
"d 	c #2A526D",
"e 	c #29506A",
"f 	c #2D5A76",
"g 	c #2C5873",
"h 	c #29516B",
"i 	c #284F68",
"j 	c #336586",
"k 	c #2D5874",
"l 	c #2C5671",
"m 	c #2A546F",
"n 	c #284F69",
"o 	c #274D66",
"p 	c #2C5772",
"q 	c #274E67",
"r 	c #264C64",
"s 	c #326282",
"t 	c #2A536D",
"u 	c #274C65",
"v 	c #264A62",
"w 	c #2F5C7A",
"x 	c #2A546E",
"y 	c #264B63",
"z 	c #254960",
"A 	c #316281",
"B 	c #305F7E",
"C 	c #2A526C",
"D 	c #285069",
"E 	c #254961",
"F 	c #24475E",
"G 	c #346787",
"H 	c #336485",
"I 	c #2E5C79",
"J 	c #29516A",
"K 	c #284E67",
"L 	c #254A62",
"M 	c #24485F",
"N 	c #23465C",
"O 	c #2B5671",
"P 	c #274D65",
"Q 	c #254860",
"R 	c #24465D",
"S 	c #22445A",
"T 	c #336483",
"U 	c #316181",
"V 	c #274E66",
"W 	c #23455B",
"X 	c #224358",
"Y 	c #707070",
"Z 	c #274C64",
"` 	c #254A61",
" .	c #23455C",
"..	c #224359",
"+.	c #214156",
"@.	c #305E7D",
"#.	c #264B62",
"$.	c #25485F",
"%.	c #23465D",
"&.	c #214257",
"*.	c #204054",
"=.	c #24475D",
"-.	c #224258",
";.	c #204055",
">.	c #1F3E52",
",.	c #24485E",
"'.	c #203F53",
").	c #1F3C50",
"!.	c #020202",
"~.	c #7F7F7F",
"{.	c #606060",
"].	c #346375",
"^.	c #224459",
"/.	c #203F54",
"(.	c #1F3D51",
"_.	c #1E3B4E",
":.	c #5E889B",
"<.	c #23445A",
"[.	c #224257",
"}.	c #1E3C4F",
"|.	c #1D394C",
"1.	c #214155",
"2.	c #1E3C50",
"3.	c #1D3A4D",
"4.	c #1C384A",
"5.	c #FFFFFF",
"6.	c #6B6B6B",
"7.	c #DDDDDD",
"8.	c #C2C2C2",
"9.	c #B1B1B1",
"0.	c #A8A8A8",
"a.	c #969696",
"b.	c #CBCBCB",
"c.	c #9F9F9F",
"d.	c #D4D4D4",
"e.	c #B9B9B9",
"                                                                                                ",
"                                                                                                ",
"            . . . . . . . . . . . . . . . . . . . . . . . . . . . . . . . . . +       @ @ @     ",
"            . # # # # # # # # # # # # # # # # # # # # # # # # # # # # # # # # $       @ @ @     ",
"            . # % % % % % % % % % % % % % % % % % % % % % % % % % % % % % % # $       @ @ @     ",
"            . # % & & & & & & & & & & & & & & & & & & & & * = - ; > , ' ) ! # $       @ @ @     ",
"            . # % & & & & & & & & & & & & & & & & & & & ~ { ] ^ / ( _ : < ! # $       @ @ @     ",
"            . # % & & & & & & & & & & & & & & & & & & [ } | 1 2 3 4 5 6 7 ! # $       @ @ @     ",
"            . # % & & & & & & & & & & & & & & & & & & * = - ; 8 9 ' ) 0 a ! # $       @ @ @     ",
"            . # % & & & & & & & & & & & & & & & & & ~ { ] b > , c : < d e ! # $       @ @ @     ",
"            . # % & & & & & & & & & & & & & & & & [ } | 1 2 3 f g 6 7 h i ! # $       @ @ @     ",
"            . # % & & & & & & & & & & & & & & & & j = - ; 8 4 k l m a n o ! # $       @ @ @     ",
"            . # % & & & & & & & & & & & & & & & ~ { ] b > , c p 0 d e q r ! # $       @ @ @     ",
"            . # % & & & & & & & & & & & & & & [ } s 1 2 3 f : < t h i u v ! # $       @ @ @     ",
"            . # % & & & & & & & & & & & & & & j = - ; w 4 k l x h n o y z ! # $       @ @ @     ",
"            . # % & & & & & & & & & & & & & ~ { A B > , c p 0 C D q r E F ! # $       @ @ @     ",
"            . # % & & & & & & & & & & & & G H s 1 2 I _ : < t J K u L M N ! # $       @ @ @     ",
"            . # % & & & & & & & & & & & [ } = - ; w 4 k O x h i P y Q R S ! # $       @ @ @     ",
"            . # % & & & & & & & & & & & * T U B > , c ) 0 C D V y E F W X ! # $       @ @ @     ",
"    Y Y Y Y Y Y Y Y Y Y Y Y Y Y Y Y Y Y Y Y 1 2 I _ : < t e K Z ` M  ...+.! # $       @ @ @     ",
"    Y $ $ $ $ $ $ $ $ $ $ $ $ $ $ $ $ $ $ $ @.w 4 5 O 7 h i P #.$.%.S &.*.! # $       @ @ @     ",
"    Y $ $ $ $ $ $ $ $ $ $ $ $ $ $ $ $ $ $ $ > , ' ) 0 a D o y z =.W -.;.>.! # $       @ @ @     ",
"    Y $ $ $ $ $ $ $ $ $ $ $ $ $ $ $ $ $ $ $ ( _ : < t e K r ` ,.W ..+.'.).! # $       @ @ @     ",
"    Y $ !.~.{.{.$ $ ].].].].].$ $ {.{.~.!.$ 4 5 6 7 h i P v $.N ^.&./.(._.! # $       @ @ @     ",
"    Y $ ~.{.{.{.$ $ :.:.:.:.:.$ $ {.{.{.~.$ ' ) 0 a n o y z =.<.[.;.>.}.|.! # $       @ @ @     ",
"    Y $ ~.{.{.{.$ $ :.:.:.:.:.$ $ {.{.{.~.$ : < d e q r ` F W X 1.'.2.3.4.! # $       @ @ @     ",
"    Y $ ~.{.{.{.$ $ :.:.:.:.:.$ $ {.{.{.~.$ ! ! ! ! ! ! ! ! ! ! ! ! ! ! ! ! # $       @ @ @     ",
"    Y $ !.~.{.{.$ $ ].].].].].$ $ {.{.~.!.$ # # # # # # # # # # # # # # # # # $       @ @ @     ",
"    Y $ $ $ $ $ $ $ $ $ $ $ $ $ $ $ $ $ $ $ $ $ $ $ $ $ $ $ $ $ $ $ $ $ $ $ $ $       @ @ @     ",
"    Y $ $ $ $ $ $ $ $ $ $ $ $ $ $ $ $ $ $ $                                           @ @ @     ",
"    Y $ $ $ $ $ $ $ $ $ $ $ $ $ $ $ $ $ $ $                                           @ @ @     ",
"    Y # # # # # # # # # # # # # # # # # # #                                           @ @ @     ",
"                                                                                      @ @ @     ",
"                                                                                      @ @ @     ",
"                          5.5.5.5.5.5.5.5.5.5.5.5.5.5.5.5.5.5.5.5.5.5.5.5.5.5.5.5.5.5.5.5.5.6.  ",
"                          5.7.7.7.7.7.7.7.7.7.7.7.7.7.7.7.7.7.7.7.7.7.7.7.7.7.7.7.7.7.7.7.7.6.  ",
"                          5.7.7.7.7.7.7.7.7.8.9.7.7.7.7.7.0.a.8.7.7.7.7.7.7.7.7.7.7.7.7.7.7.6.  ",
"                          5.7.7.7.7.7.7.7.7.@ @ 8.7.7.7.7.8.@ 8.7.7.7.7.7.7.7.7.7.7.7.7.7.7.6.  ",
"                          5.7.7.7.7.7.7.7.7.b.b.7.7.7.7.7.8.@ 8.7.7.7.7.7.7.7.7.7.7.7.7.7.7.6.  ",
"                          5.7.c.@ c.7.c.a.8.0.@ 8.7.b.a.0.a.@ 8.7.d.c.0.@ 9.7.7.9.a.c.c.8.7.6.  ",
"                          5.7.d.@ 0.7.e.b.7.8.@ 8.7.a.9.7.8.@ 8.7.c.c.7.e.@ b.e.@ b.7.0.@ d.6.  ",
"                          5.7.7.0.@ 7.9.7.7.8.@ 8.8.@ 8.7.8.@ 8.7.@ a.0.c.@ 8.0.@ 7.7.8.@ 8.6.  ",
"                          5.7.7.8.@ 8.9.7.7.8.@ 8.8.@ 8.7.8.@ 8.7.@ 0.7.7.7.7.0.@ 7.7.8.@ 8.6.  ",
"    @ @ @ @ @ @ @ @ @ @ @ 5.7.7.7.@ @ b.7.7.8.@ 8.b.@ 9.7.e.@ 8.7.c.@ d.7.9.d.e.@ d.7.9.@ d.6.  ",
"    @ @ @ @ @ @ @ @ @ @ @ 5.7.7.7.0.@ 7.7.b.c.@ c.7.9.@ 9.9.@ c.7.d.a.@ a.8.7.7.9.a.c.a.8.7.6.  ",
"    @ @ @ @ @ @ @ @ @ @ @ 5.7.7.7.7.7.7.7.7.7.7.7.7.7.7.7.7.7.7.7.7.7.7.7.7.7.7.7.7.7.7.7.7.6.  ",
"                          6.6.6.6.6.6.6.6.6.6.6.6.6.6.6.6.6.6.6.6.6.6.6.6.6.6.6.6.6.6.6.6.6.6.  ",
"                                                                                                "};
