/* XPM */
static char * logan_irc_xpm[] = {
"48 48 419 2",
"  	c None",
". 	c #0C0C08",
"+ 	c #0D0D0C",
"@ 	c #0A0A0A",
"# 	c #111111",
"$ 	c #0D0C0C",
"% 	c #0C0C0C",
"& 	c #080808",
"* 	c #212120",
"= 	c #717170",
"- 	c #90918F",
"; 	c #6E6F6E",
"> 	c #444444",
", 	c #101010",
"' 	c #262626",
") 	c #747473",
"! 	c #8C8C8B",
"~ 	c #6A6B6A",
"{ 	c #414141",
"] 	c #1D1D1D",
"^ 	c #8F8F8F",
"/ 	c #DBDBDB",
"( 	c #E7E8E7",
"_ 	c #CDCECD",
": 	c #9A9A9A",
"< 	c #4B4B4B",
"[ 	c #090909",
"} 	c #959595",
"| 	c #DEDFDE",
"1 	c #CACBCA",
"2 	c #949594",
"3 	c #424142",
"4 	c #050505",
"5 	c #8E8E8E",
"6 	c #21211D",
"7 	c #A8A8A6",
"8 	c #ECEDEC",
"9 	c #F0F1F0",
"0 	c #DDDEDD",
"a 	c #ADAEAD",
"b 	c #646464",
"c 	c #040404",
"d 	c #5B5B5B",
"e 	c #C8C8C8",
"f 	c #F4F4F4",
"g 	c #5E5E5E",
"h 	c #2A2A2A",
"i 	c #8C8C8C",
"j 	c #CFCFCF",
"k 	c #D9D9D9",
"l 	c #C3C4C3",
"m 	c #929392",
"n 	c #4F4F4F",
"o 	c #0D0C0D",
"p 	c #1A191A",
"q 	c #C8C9C8",
"r 	c #AEAFAE",
"s 	c #7D7D7D",
"t 	c #474747",
"u 	c #454545",
"v 	c #9D9E9D",
"w 	c #BABBBA",
"x 	c #8A8C8A",
"y 	c #0B0B0B",
"z 	c #19191C",
"A 	c #444445",
"B 	c #848484",
"C 	c #A5A6A5",
"D 	c #9B9C9B",
"E 	c #676767",
"F 	c #414041",
"G 	c #191919",
"H 	c #171010",
"I 	c #C6C5C5",
"J 	c #F3F3F3",
"K 	c #EDEDED",
"L 	c #D2D3D2",
"M 	c #9E9E9E",
"N 	c #545454",
"O 	c #343434",
"P 	c #6F6F6F",
"Q 	c #696969",
"R 	c #3D3C3D",
"S 	c #070707",
"T 	c #08090B",
"U 	c #787995",
"V 	c #474751",
"W 	c #434243",
"X 	c #575757",
"Y 	c #4E4E4E",
"Z 	c #434344",
"` 	c #2C2B2F",
" .	c #868687",
"..	c #323131",
"+.	c #F1F1F1",
"@.	c #EFEFEF",
"#.	c #D7D7D7",
"$.	c #A1A1A1",
"%.	c #575657",
"&.	c #212121",
"*.	c #353435",
"=.	c #444143",
"-.	c #211519",
";.	c #1C1D25",
">.	c #9FA0BE",
",.	c #6C6C79",
"'.	c #2B2B30",
").	c #1A1920",
"!.	c #17161D",
"~.	c #1A1923",
"{.	c #22223C",
"].	c #3D3D4A",
"^.	c #202021",
"/.	c #A3A3A3",
"(.	c #D7D8D7",
"_.	c #BBBBBB",
":.	c #8A8A8A",
"<.	c #4E4D4E",
"[.	c #1A1617",
"}.	c #190A0F",
"|.	c #2E1019",
"1.	c #59021D",
"2.	c #22000B",
"3.	c #1F1218",
"4.	c #000000",
"5.	c #676886",
"6.	c #C1C2D8",
"7.	c #B0B0BE",
"8.	c #626176",
"9.	c #393855",
"0.	c #363556",
"a.	c #353559",
"b.	c #3C3B68",
"c.	c #242242",
"d.	c #312B24",
"e.	c #545352",
"f.	c #ABABAB",
"g.	c #ACADAC",
"h.	c #969696",
"i.	c #686768",
"j.	c #35262B",
"k.	c #5C162E",
"l.	c #7A1336",
"m.	c #98133F",
"n.	c #80183B",
"o.	c #984D6E",
"p.	c #9092BE",
"q.	c #B3B4D7",
"r.	c #B7B9D7",
"s.	c #ACACC7",
"t.	c #A5A5BF",
"u.	c #9F9FC4",
"v.	c #9798C3",
"w.	c #7C7CA5",
"x.	c #302F42",
"y.	c #917740",
"z.	c #292620",
"A.	c #646364",
"B.	c #656565",
"C.	c #474341",
"D.	c #483C36",
"E.	c #735C5F",
"F.	c #AC6280",
"G.	c #D06691",
"H.	c #D46090",
"I.	c #CF5383",
"J.	c #BA3666",
"K.	c #8E90BD",
"L.	c #999BCB",
"M.	c #9D9FCD",
"N.	c #AFB0D5",
"O.	c #BEC0DE",
"P.	c #D0D1EA",
"Q.	c #CDCEE3",
"R.	c #6C6B7B",
"S.	c #302A18",
"T.	c #D5B15F",
"U.	c #58554D",
"V.	c #37241A",
"W.	c #38251B",
"X.	c #321F15",
"Y.	c #492814",
"Z.	c #7D3C14",
"`.	c #7F5138",
" +	c #7F5F60",
".+	c #C095A7",
"++	c #D97DAB",
"@+	c #C03D6E",
"#+	c #9A0433",
"$+	c #000002",
"%+	c #ACAED4",
"&+	c #A5A6C4",
"*+	c #3D3B3B",
"=+	c #876E05",
"-+	c #EED895",
";+	c #C7C0AA",
">+	c #A94D14",
",+	c #AA4D13",
"'+	c #AA4A09",
")+	c #B94F06",
"!+	c #D75A06",
"~+	c #C35B0E",
"{+	c #9E692C",
"]+	c #725B4F",
"^+	c #AC5381",
"/+	c #A30E41",
"(+	c #97002F",
"_+	c #000003",
":+	c #8B8DB9",
"<+	c #3E3B3B",
"[+	c #C4A002",
"}+	c #FCD839",
"|+	c #FAD743",
"1+	c #F7C89E",
"2+	c #FCC898",
"3+	c #FCB55C",
"4+	c #FCAE4C",
"5+	c #FCA942",
"6+	c #FC9F37",
"7+	c #DA771F",
"8+	c #552815",
"9+	c #9C4270",
"0+	c #8C8DB9",
"a+	c #3F3C3C",
"b+	c #C5A000",
"c+	c #FCCC00",
"d+	c #FBD535",
"e+	c #FBD949",
"f+	c #F8E7B0",
"g+	c #FBD9AC",
"h+	c #FC9948",
"i+	c #FC7310",
"j+	c #DA5804",
"k+	c #55200E",
"l+	c #8B8CB8",
"m+	c #3B3838",
"n+	c #C39E00",
"o+	c #FCCD02",
"p+	c #FCD21E",
"q+	c #FCBF1E",
"r+	c #FC7F09",
"s+	c #FC5E00",
"t+	c #DA5100",
"u+	c #8B8CB9",
"v+	c #3A383C",
"w+	c #FCB900",
"x+	c #FC7D00",
"y+	c #403D3C",
"z+	c #A20E40",
"A+	c #8C002B",
"B+	c #7D7EA6",
"C+	c #9698C7",
"D+	c #989ACA",
"E+	c #9294C4",
"F+	c #9496C6",
"G+	c #3F3C3B",
"H+	c #C59F00",
"I+	c #9A4270",
"J+	c #8B0E39",
"K+	c #130005",
"L+	c #1E1E28",
"M+	c #8182AB",
"N+	c #8E8FC0",
"O+	c #69699B",
"P+	c #7A7BAC",
"Q+	c #9799C9",
"R+	c #8182AE",
"S+	c #373434",
"T+	c #C49E00",
"U+	c #FB5D00",
"V+	c #D54D00",
"W+	c #521D0C",
"X+	c #8E3762",
"Y+	c #460C21",
"Z+	c #030001",
"`+	c #08080B",
" @	c #7C7DA4",
".@	c #8C8DBE",
"+@	c #5F5F91",
"@@	c #7475A6",
"#@	c #9091C2",
"$@	c #5C5C89",
"%@	c #272424",
"&@	c #C49F00",
"*@	c #FB7B00",
"=@	c #EC5300",
"-@	c #B23701",
";@	c #541716",
">@	c #85113B",
",@	c #770328",
"'@	c #090002",
")@	c #8D8EBF",
"!@	c #4D4D7B",
"~@	c #232028",
"{@	c #A88804",
"]@	c #F6C700",
"^@	c #F4B300",
"/@	c #FCCA00",
"(@	c #FBB800",
"_@	c #F27200",
":@	c #C73B00",
"<@	c #71200C",
"[@	c #7B2D49",
"}@	c #980C3C",
"|@	c #93002E",
"1@	c #0C0003",
"2@	c #504F80",
"3@	c #282648",
"4@	c #4C3F12",
"5@	c #E1B600",
"6@	c #FCCB00",
"7@	c #DC6500",
"8@	c #FAC500",
"9@	c #FBC800",
"0@	c #F2A400",
"a@	c #DF5B00",
"b@	c #AF2A00",
"c@	c #541812",
"d@	c #903B65",
"e@	c #A41245",
"f@	c #09090C",
"g@	c #515183",
"h@	c #2B2A5A",
"i@	c #191719",
"j@	c #D6AD00",
"k@	c #CF3A00",
"l@	c #F9C200",
"m@	c #F7BB00",
"n@	c #DE7000",
"o@	c #CF3E00",
"p@	c #AE2A00",
"q@	c #561A12",
"r@	c #101013",
"s@	c #F4B600",
"t@	c #D26100",
"u@	c #CC4200",
"v@	c #BB3E00",
"w@	c #5D2212",
"x@	c #0A0A0D",
"y@	c #7A7BA2",
"z@	c #8A8BBB",
"A@	c #5E5F90",
"B@	c #F3B700",
"C@	c #D16700",
"D@	c #C74800",
"E@	c #B14100",
"F@	c #582312",
"G@	c #A31245",
"H@	c #0D0004",
"I@	c #0B0B08",
"J@	c #626282",
"K@	c #72729C",
"L@	c #565785",
"M@	c #C64900",
"N@	c #AD4301",
"O@	c #562314",
"P@	c #9E1245",
"Q@	c #92002E",
"R@	c #0E0105",
"S@	c #07070A",
"T@	c #0D0D14",
"U@	c #323249",
"V@	c #72739C",
"W@	c #8A8CBC",
"X@	c #AD4401",
"Y@	c #562415",
"Z@	c #8F3C65",
"`@	c #981C44",
" #	c #8E022D",
".#	c #0F0307",
"+#	c #353545",
"@#	c #7B7DA6",
"##	c #494977",
"$#	c #272651",
"%#	c #170F12",
"&#	c #C49D00",
"*#	c #FAC900",
"=#	c #CD3A00",
"-#	c #AD4402",
";#	c #8D3B65",
">#	c #83173E",
",#	c #140208",
"'#	c #020200",
")#	c #0F0D00",
"!#	c #E5B900",
"~#	c #BA3B07",
"{#	c #F7C200",
"]#	c #C94B00",
"^#	c #B24704",
"/#	c #582918",
"(#	c #683252",
"_#	c #241221",
":#	c #010100",
"<#	c #9D8002",
"[#	c #81360E",
"}#	c #F4C200",
"|#	c #F5B800",
"1#	c #DA6C00",
"2#	c #D45102",
"3#	c #A44102",
"4#	c #321200",
"5#	c #0A0609",
"6#	c #1E0E01",
"7#	c #9E7F00",
"8#	c #A57B00",
"9#	c #9C4D00",
"0#	c #893400",
"a#	c #411E09",
"b#	c #110F11",
"c#	c #FFFFFF",
"d#	c #6B6B6B",
"e#	c #DDDDDD",
"f#	c #B1B1B1",
"g#	c #C2C2C2",
"h#	c #D4D4D4",
"i#	c #CBCBCB",
"j#	c #A8A8A8",
"k#	c #9F9F9F",
"l#	c #B9B9B9",
"                      . + @ #                 $ % & #                                           ",
"                    * = - ; > ,             ' ) ! ~ { ,                                         ",
"                  ] ^ / ( _ : < [         ' } | ( 1 2 3 4                             5 5 5     ",
"                  6 7 8 9 0 a b #     c @ , d e f 0 a g %                             5 5 5     ",
"                  h i j k l m n o   p q r s t u v w x n y                             5 5 5     ",
"                  z A B C D E F G H I J K L M N O P Q R S                             5 5 5     ",
"                T U V W X Y Z `  ...j +.@.#.$.%.&.*.=.-.                              5 5 5     ",
"                ;.>.,.'.).!.~.{.].^./.(.(._.:.<.[.}.|.1.2.3.                          5 5 5     ",
"              4.5.6.7.8.9.0.a.b.c.d.e.f.g.h.i.{ j.k.l.m.n.o.4.                        5 5 5     ",
"              4.p.q.r.s.t.u.v.w.x.y.z.A.B.%.C.D.E.F.G.H.I.J.4.                        5 5 5     ",
"              4.K.L.M.N.O.P.Q.R.S.T.U.V.W.X.Y.Z.`. +.+++@+#+$+                        5 5 5     ",
"              4.K.L.L.L.M.%+&+*+=+-+;+>+,+'+)+!+~+{+]+^+/+(+_+                        5 5 5     ",
"              4.K.L.L.L.L.L.:+<+[+}+|+1+2+3+4+5+6+7+8+9+/+(+4.                        5 5 5     ",
"              4.K.L.L.L.L.L.0+a+b+c+c+d+e+f+g+h+i+j+k+9+/+(+4.                        5 5 5     ",
"              4.K.L.L.L.L.L.l+m+n+c+c+c+o+p+q+r+s+t+k+9+/+(+4.                        5 5 5     ",
"              4.K.L.L.L.L.L.u+v+n+c+c+c+c+c+w+x+s+t+k+9+/+(+4.                        5 5 5     ",
"              4.K.L.L.L.L.L.0+y+b+c+c+c+c+c+w+x+s+t+k+9+z+A+4.                        5 5 5     ",
"              4.B+C+D+E+F+L.:+G+H+c+c+c+c+c+w+x+s+t+k+I+J+K+                          5 5 5     ",
"                L+M+N+O+P+Q+R+S+T+c+c+c+c+c+w+x+U+V+W+X+Y+Z+                          5 5 5     ",
"                `+ @.@+@@@#@$@%@&@c+c+c+c+c+w+*@=@-@;@>@,@'@                          5 5 5     ",
"                `+ @.@+@@@)@!@~@{@]@c+^@/@c+(@_@:@<@[@}@|@1@                          5 5 5     ",
"                `+ @.@+@@@)@2@3@4@5@6@7@8@9@0@a@b@c@d@e@|@1@                          5 5 5     ",
"                f@ @.@+@@@)@g@h@i@j@6@k@l@m@n@o@p@q@d@e@|@1@                          5 5 5     ",
"                r@ @.@+@@@)@g@h@i@j@6@k@l@s@t@u@v@w@d@e@|@1@                          5 5 5     ",
"                x@y@z@A@@@)@g@h@i@j@6@k@l@B@C@D@E@F@d@G@|@H@                          5 5 5     ",
"                I@J@K@L@@@)@g@h@i@j@6@k@l@B@C@M@N@O@d@P@Q@R@                          5 5 5     ",
"                  S@T@U@V@W@g@h@i@j@6@k@l@B@C@M@X@Y@Z@`@ #.#                          5 5 5     ",
"                      4.+#@###$#%#&#*#=#l@B@C@M@-#Y@;#>#,#                            5 5 5     ",
"                        4.4.4.4.'#)#!#~#{#B@C@]#^#/#(#_#                              5 5 5     ",
"                                4.:#<#[#}#|#1#2#3#4#5#                                5 5 5     ",
"                                    4.6#7#8#9#0#a#                                    5 5 5     ",
"                                        4.4.4.4.b#                                    5 5 5     ",
"                                                                                      5 5 5     ",
"                                                                                      5 5 5     ",
"                          c#c#c#c#c#c#c#c#c#c#c#c#c#c#c#c#c#c#c#c#c#c#c#c#c#c#c#c#c#c#c#c#c#d#  ",
"                          c#e#e#e#e#e#e#e#e#e#e#e#e#e#e#e#e#e#e#e#e#e#e#e#e#e#e#e#e#e#e#e#e#d#  ",
"                          c#e#e#e#e#e#e#e#e#e#e#f#g#e#e#e#e#e#e#e#e#e#e#e#e#e#e#e#e#e#e#e#e#d#  ",
"                          c#e#e#e#e#e#e#e#e#e#g#5 5 e#e#e#e#e#e#e#e#e#e#e#e#e#e#e#e#e#e#e#e#d#  ",
"                          c#e#e#e#e#e#e#e#e#e#e#g#h#e#e#e#e#e#e#e#e#e#e#e#e#e#e#e#e#e#e#e#e#d#  ",
"                          c#e#e#e#e#e#e#e#e#e#i#h.5 e#j#h.j#j#h.e#g#h.k#h.g#e#e#e#e#e#e#e#e#d#  ",
"                          c#e#e#e#e#e#e#e#e#e#e#j#5 e#h#5 h.k#h.e#h.l#e#h.f#e#e#e#e#e#e#e#e#d#  ",
"                          c#e#e#e#e#e#e#e#e#e#e#j#5 e#e#5 j#e#e#g#5 g#e#e#e#e#e#e#e#e#e#e#e#d#  ",
"                          c#e#e#e#e#e#e#e#e#e#e#j#5 e#e#5 j#e#e#g#5 g#e#e#e#e#e#e#e#e#e#e#e#d#  ",
"    5 5 5 5 5 5 5 5 5 5 5 c#e#e#e#e#e#e#e#e#e#e#j#5 e#e#5 j#e#e#h#5 k#e#h#f#e#e#e#e#e#e#e#e#d#  ",
"    5 5 5 5 5 5 5 5 5 5 5 c#e#e#e#e#e#e#e#e#e#l#h.5 l#j#5 h.l#e#e#g#5 5 k#h#e#e#e#e#e#e#e#e#d#  ",
"    5 5 5 5 5 5 5 5 5 5 5 c#e#e#e#e#e#e#e#e#e#e#e#e#e#e#e#e#e#e#e#e#e#e#e#e#e#e#e#e#e#e#e#e#d#  ",
"                          d#d#d#d#d#d#d#d#d#d#d#d#d#d#d#d#d#d#d#d#d#d#d#d#d#d#d#d#d#d#d#d#d#d#  ",
"                                                                                                "};
