/* XPM */
static char * logan_news_xpm[] = {
"48 48 36 1",
" 	c None",
".	c #EFEFEF",
"+	c #8E8E8E",
"@	c #C1C1C1",
"#	c #7A7A7A",
"$	c #AFAFAF",
"%	c #D8D8D8",
"&	c #FFFFFF",
"*	c #BFBFBF",
"=	c #E8E8E8",
"-	c #B3B3B3",
";	c #9B9B9B",
">	c #A7A7A7",
",	c #C0C0C0",
"'	c #CCCCCC",
")	c #AAAAAA",
"!	c #959595",
"~	c #B0B0B0",
"{	c #A2A2A2",
"]	c #A0A0A0",
"^	c #CACACA",
"/	c #888888",
"(	c #8C8C8C",
"_	c #606060",
":	c #909090",
"<	c #787878",
"[	c #A8A8A8",
"}	c #6B6B6B",
"|	c #DDDDDD",
"1	c #B9B9B9",
"2	c #9F9F9F",
"3	c #969696",
"4	c #CBCBCB",
"5	c #B1B1B1",
"6	c #C2C2C2",
"7	c #D4D4D4",
"                                                ",
"                                                ",
"         ........................          +++  ",
"         .@@@@@@@@@@@@@@@@@@@@@@#          +++  ",
"         .$$$$$$$$$$$$$$$$$$$$$@#          +++  ",
"      ........................$@#          +++  ",
"      .%%%%%%%%%%%%%%%%%%%%%%#$@#          +++  ",
"      .%%%%%%%%%%%%%%%%%%%%%%#$@#          +++  ",
"      .%%%%%%%%%&&&&&&&&&&&%%#$@#          +++  ",
"      .%%%%%%%%%&&&&&*****&%%#$@#          +++  ",
"      .%%%%%%%%%&&&%%*****&%%#$@#          +++  ",
"      .%%%%%%%%%&&&%%*****&%%#$@#          +++  ",
"      .%%%%%%%%%&==%%*****&%%#$@#          +++  ",
"      .%%%%%%%%%&==%%*****&%%#$@#          +++  ",
"      .%%%%%%%%%&==%%*****&%%#$@#          +++  ",
"      .%%%%%%%%%&==%%*****&%%#$@#          +++  ",
"      .%%%%%%%%%&==%%*****&%%#$@#          +++  ",
"      .%%%%%%%%%&&&&&&&&&&&%%#$@#          +++  ",
"      .%%%%%%%%%%%%%%%%%%%%%%#$@#          +++  ",
"      .%%%%%%%%%%%%%%%%%%%%%%#$@#          +++  ",
"      .%%%%%%%%%%%%%%%%%%%%%%#$@#          +++  ",
"      .%%-;>,%%-;-;';'%))%)%%#$@#          +++  ",
"      .%%%%%%%%%%%%%%%%%%%%%%#$@#          +++  ",
"      .%%!!!~{{]%^!~~/^%)(;%%#$@#          +++  ",
"      .%%%%%%%%%%%%%%%%%%%%%%#$@#          +++  ",
"      .%%]__:<_:__[:<%%)(;)%%#$@#          +++  ",
"      .%%%%%%%%%%%%%%%%%%%%%%#$@#          +++  ",
"      .%%]__:<_:__[:<[:_<<]%%####          +++  ",
"      .%%%%%%%%%%%%%%%%%%%%%%#             +++  ",
"      .%%%%%%%%%%%%%%%%%%%%%%#             +++  ",
"      .#######################             +++  ",
"                                           +++  ",
"                                           +++  ",
"                                           +++  ",
"             &&&&&&&&&&&&&&&&&&&&&&&&&&&&&&&&&} ",
"             &||||||||||||||||||||||||||||||||} ",
"             &||||||||||||||||||||||||||||||||} ",
"             &||||||||||||||||||||||||||||||||} ",
"             &|12+13+4||523263+2|[3|1+15322|||} ",
"             &||[+77+[|1+77+51+[|3+4|[6+1|2|||} ",
"             &||[+||+[|[+[[+[7+372+1667++26|||} ",
"             &||[+||+[|[+|||||2+1632[|77[++4||} ",
"             &||[+||+[|1+1|41|1++|5+2|61|1+6||} ",
"  +++++++++++&|13+11+31|[++5||7+[|4+5|43225|||} ",
"  +++++++++++&||||||||||||||||||||||||||||||||} ",
"  +++++++++++&||||||||||||||||||||||||||||||||} ",
"             }}}}}}}}}}}}}}}}}}}}}}}}}}}}}}}}}} ",
"                                                "};
