/* XPM */
static char * logan_calc_xpm[] = {
"48 48 22 1",
" 	c None",
".	c #8E8E8E",
"+	c #939393",
"@	c #474747",
"#	c #000000",
"$	c #777777",
"%	c #A5A5A5",
"&	c #C9C9C9",
"*	c #774545",
"=	c #1C1C1C",
"-	c #C6C6C6",
";	c #FFFFFF",
">	c #6B6B6B",
",	c #DDDDDD",
"'	c #A8A8A8",
")	c #969696",
"!	c #C2C2C2",
"~	c #CBCBCB",
"{	c #9F9F9F",
"]	c #B9B9B9",
"^	c #D4D4D4",
"/	c #B1B1B1",
"                                                ",
"                                                ",
"                                           ...  ",
"                                           ...  ",
"                                           ...  ",
"   +++++++++++++++++++++++++++++++++++     ...  ",
"   +@@@@@@@@@@@@@@@@@@@@@@@@@@@@@@@@@#     ...  ",
"   +@$$$$$$$$$$$$$$$$$$$$$%@@@@@@@@@@#     ...  ",
"   +@$%%%%%%%%%%%%%%%%%%%%&@@@@@@@@@@#     ...  ",
"   +@$%%%%%%%%%%%%%%%%%%%%&@@@****=@@#     ...  ",
"   +@$%%%%%%%%%%%%%%%%%%%%&@@@****=@@#     ...  ",
"   +@$%%%%%%%%%%%%%%%%%%%%&@@@=====@@#     ...  ",
"   +@%&&&&&&&&&&&&&&&&&&&&&@@@@@@@@@@#     ...  ",
"   +@@@@@@@@@@@@@@@@@@@@@@@@@@@@@@@@@#     ...  ",
"   +@@@@@@@@@@@@@@@@@@@@@@@@@@@@@@@@@#     ...  ",
"   +@@----=@@@----=@@@----=@@@----=@@#     ...  ",
"   +@@----=@@@----=@@@----=@@@----=@@#     ...  ",
"   +@@=====@@@=====@@@=====@@@=====@@#     ...  ",
"   +@@@@@@@@@@@@@@@@@@@@@@@@@@@@@@@@@#     ...  ",
"   +@@----=@@@----=@@@----=@@@----=@@#     ...  ",
"   +@@----=@@@----=@@@----=@@@----=@@#     ...  ",
"   +@@=====@@@=====@@@=====@@@=====@@#     ...  ",
"   +@@@@@@@@@@@@@@@@@@@@@@@@@@@@@@@@@#     ...  ",
"   +@@----=@@@----=@@@----=@@@----=@@#     ...  ",
"   +@@----=@@@----=@@@----=@@@----=@@#     ...  ",
"   +@@=====@@@=====@@@=====@@@=====@@#     ...  ",
"   +@@@@@@@@@@@@@@@@@@@@@@@@@@@@@@@@@#     ...  ",
"   +##################################     ...  ",
"                                           ...  ",
"                                           ...  ",
"                                           ...  ",
"                                           ...  ",
"                                           ...  ",
"                                           ...  ",
"             ;;;;;;;;;;;;;;;;;;;;;;;;;;;;;;;;;> ",
"             ;,,,,,,,,,,,,,,,,,,,,,,,,,,,,,,,,> ",
"             ;,,,,,,,,,,,,,,,,,')!,,,,,,,,,,,,> ",
"             ;,,,,,,,,,,,,,,,,,!.!,,,,,,,,,,,,> ",
"             ;,,,,,,,,,,,,,,,,,!.!,,,,,,,,,,,,> ",
"             ;,,,,,~{{{~,]{{)~,!.!,^/{)],,,,,,> ",
"             ;,,,,,)/,)/^.~,.',!.!,/),/),,,,,,> ",
"             ;,,,,!.!,,,,^!'.',!.!,.',,,,,,,,,> ",
"             ;,,,,!.!,,,^)],.',!.!,.',,,,,,,,,> ",
"  ...........;,,,,,.{,^]!.]^.',!.!,'.^,/,,,,,,> ",
"  ...........;,,,,,!).'^,{./'.~{.{,^{.{!,,,,,,> ",
"  ...........;,,,,,,,,,,,,,,,,,,,,,,,,,,,,,,,,> ",
"             >>>>>>>>>>>>>>>>>>>>>>>>>>>>>>>>>> ",
"                                                "};
