/* XPM */
static char * logan_gimp_xpm[] = {
"48 48 165 2",
"  	c None",
". 	c #8E8E8E",
"+ 	c #48463F",
"@ 	c #898379",
"# 	c #BAB7B3",
"$ 	c #463C2D",
"% 	c #909090",
"& 	c #756D5E",
"* 	c #A49E91",
"= 	c #A6A29B",
"- 	c #271808",
"; 	c #392E20",
"> 	c #9E9EA1",
", 	c #6E685B",
"' 	c #9F968A",
") 	c #45433C",
"! 	c #393326",
"~ 	c #2D2215",
"{ 	c #2E271C",
"] 	c #77705F",
"^ 	c #716451",
"/ 	c #686151",
"( 	c #938674",
"_ 	c #80745D",
": 	c #6C5D4A",
"< 	c #40270E",
"[ 	c #3D250B",
"} 	c #371F07",
"| 	c #311E07",
"1 	c #251708",
"2 	c #1F1106",
"3 	c #1A0F02",
"4 	c #130B02",
"5 	c #1E1C19",
"6 	c #939498",
"7 	c #656050",
"8 	c #615C4D",
"9 	c #A5A3A2",
"0 	c #847E71",
"a 	c #0A0806",
"b 	c #4B4B4D",
"c 	c #7C7E84",
"d 	c #645E4E",
"e 	c #5E5949",
"f 	c #5D5748",
"g 	c #2C2B2A",
"h 	c #34332E",
"i 	c #5B5446",
"j 	c #3B3932",
"k 	c #1B1B1D",
"l 	c #3F3526",
"m 	c #514C40",
"n 	c #5D5546",
"o 	c #575142",
"p 	c #302F2F",
"q 	c #AAA9A8",
"r 	c #493F2F",
"s 	c #3B372B",
"t 	c #443F34",
"u 	c #514A3D",
"v 	c #554F41",
"w 	c #252423",
"x 	c #C1BEBA",
"y 	c #706C61",
"z 	c #7C786D",
"A 	c #76736E",
"B 	c #605A4E",
"C 	c #39352A",
"D 	c #403A2E",
"E 	c #474338",
"F 	c #534F40",
"G 	c #2E2D29",
"H 	c #141210",
"I 	c #2A2C30",
"J 	c #ECEBEB",
"K 	c #F3F2F1",
"L 	c #EFEFEF",
"M 	c #E2E1DF",
"N 	c #B9B9BC",
"O 	c #CCCDCE",
"P 	c #C7C7C5",
"Q 	c #4D473A",
"R 	c #4C4539",
"S 	c #0C0C0A",
"T 	c #151517",
"U 	c #68686B",
"V 	c #D6D6D5",
"W 	c #4B4336",
"X 	c #413B30",
"Y 	c #2B2A26",
"Z 	c #505053",
"` 	c #565658",
" .	c #3B3C3F",
"..	c #272726",
"+.	c #636260",
"@.	c #2F3134",
"#.	c #96979F",
"$.	c #636469",
"%.	c #282827",
"&.	c #66645B",
"*.	c #888991",
"=.	c #171718",
"-.	c #323336",
";.	c #313234",
">.	c #403E38",
",.	c #56544D",
"'.	c #424242",
").	c #070605",
"!.	c #12100C",
"~.	c #2F3136",
"{.	c #36373B",
"].	c #6E6D71",
"^.	c #22201C",
"/.	c #232322",
"(.	c #494949",
"_.	c #2A2B30",
":.	c #202020",
"<.	c #171719",
"[.	c #292A30",
"}.	c #474749",
"|.	c #4E4A3F",
"1.	c #3F424A",
"2.	c #636060",
"3.	c #5B503F",
"4.	c #595B66",
"5.	c #434036",
"6.	c #6E7076",
"7.	c #555555",
"8.	c #36373A",
"9.	c #353326",
"0.	c #1A1918",
"a.	c #ABACB5",
"b.	c #5C5B5A",
"c.	c #5A5B5F",
"d.	c #4C4D52",
"e.	c #40424A",
"f.	c #52545C",
"g.	c #676A78",
"h.	c #898989",
"i.	c #363630",
"j.	c #2F3135",
"k.	c #383941",
"l.	c #585B66",
"m.	c #555558",
"n.	c #5F6060",
"o.	c #222222",
"p.	c #838585",
"q.	c #4A4D55",
"r.	c #8F9091",
"s.	c #8E8E8F",
"t.	c #696969",
"u.	c #909092",
"v.	c #FFFFFF",
"w.	c #D9D9D9",
"x.	c #C0C0C0",
"y.	c #6B6B6B",
"z.	c #DDDDDD",
"A.	c #C2C2C2",
"B.	c #CBCBCB",
"C.	c #B1B1B1",
"D.	c #969696",
"E.	c #9F9F9F",
"F.	c #A8A8A8",
"G.	c #B9B9B9",
"H.	c #D4D4D4",
"                                                                                                ",
"                                                                                                ",
"                                                                                      . . .     ",
"                                      +                                 @             . . .     ",
"                #                     $ +                             % &             . . .     ",
"                  * =                 - ;                           > & ,             . . .     ",
"                  * ' *       ) $ ; ; ! ; ~ { $ $                 = ] ^ /             . . .     ",
"                  = ( _ : $ < [ } } | - - - 1 2 3 3 4 5         6 ] / 7 8             . . .     ",
"                  9 0 $ < < [ } } | | - - - 2 2 3 3 4 4 a b c % , / d e f g           . . .     ",
"                    _ < < < [ } | | - - - 2 2 3 3 4 4 a a h , , / 7 e i j k           . . .     ",
"                    ' l < [ } } | | - - 1 2 3 3 3 3 2 5 ! m e 7 d e n o p k           . . .     ",
"                    q _ r ; < < ~ ~ ~ ~ ~ ~ { { ~ { ; s t u i e f n o v p w           . . .     ",
"                      x ' & d e y z A B t s s C C s D t E u v o v o F G H I           . . .     ",
"                  J K L M ' 0 N O P P x ' B v u Q R E E E R Q Q Q Q w S T             . . .     ",
"      U           K J V J O P J M M M M V * / d o F u W t t X t E Y a k               . . .     ",
"    Z `  ...+.% M K > Z b V J K L V q > V P , 7 e o Q t X s s s H a k @.              . . .     ",
"    #.q $.p %.&.x K  .k S q J L L > *.w % P &.7 i F W X s s C h a =.-.                . . .     ",
"  Z q q $.;.g >.0 P 0 ..,.@ V J J ` '.).+.= / e o u E D s C C H !.~.                  . . .     ",
"  {.A A b p {.'.B 0 @ z 0 0 * V M ].=.^.% z d f F R t D s C Y S k                     . . .     ",
"  /.(.(. . .(.Z B , & _ _ _ z ' x x % % z / f v Q E t s s C =.H _.                    . . .     ",
"  :.p {. .b ` +.&.8 ^ & ] _ ] ] ] ] y , 7 e m t R t D s C G !.<.                      . . .     ",
"    p  .(.` +.].&.i 8 / , , , , ^ / / 8 e i C X t X s C C G H [.                      . . .     ",
"    }.b ` $.].A ,.|.F i 8 / 7 d d e f o u l $ v Q D C ! ! S k 1.                      . . .     ",
"        2.].z y R E Q m o e f o o o m X l r 3.: ^ ^ ^ _ _ ^ &.4.                      . . .     ",
"          A &.m 5.t 5.R R m m E X ! ^.{ D 3.: : ^ _ ( ( ' ' % 6.        7.8.(.        . . .     ",
"              9.Y Y Y Y 5 5 0.0.5 w G 5.o 7 / R $ $ r : ( ( % >   9 a.b.;.'.b c.].*.  . . .     ",
"                (...S ).).S H ^.G X |.B 7 B 5.Y ^.a !.0.w j '.d.e.f.g.6.'.(.` +.].c % #.  h.    ",
"                        i.p Y h i.>.+ + h ^.^.=.S =...j. .k.k.k.        l.m.n.$.].$.e.f.  .     ",
"                              ;.p %.%.%.%.w H =.o.                          d.{.g ~.{.d.p..     ",
"                                k.{.~.~.~.~.                                      q.    . .     ",
"                                                                                      . . .     ",
"                                                                                      . . .     ",
"                                                                                      r.s..     ",
"                                              t.                                      r.u..     ",
"                          v.v.v.v.v.v.v.v.v.v.w.x.v.v.v.v.v.v.v.v.v.v.v.v.v.v.v.v.v.v.v.v.v.y.  ",
"                          v.z.z.z.z.z.z.z.z.z.. . A.z.z.z.z.z.z.z.z.z.z.z.z.z.z.z.z.z.z.z.z.y.  ",
"                          v.z.z.z.z.z.z.z.z.z.B.B.z.z.z.z.z.z.z.z.z.z.z.z.z.z.z.z.z.z.z.z.z.y.  ",
"                          v.z.z.z.C.D.E.E.E.C.F.. A.G.E.. G.D.. G.C.. D.H.B.E.. G.D.. A.z.z.y.  ",
"                          v.z.z.A.. A.z.. C.z.A.. A.z.F.. H.H.. D.z.G.. A.z.F.. A.z.E.. H.z.y.  ",
"                          v.z.z.B.. G.z.. C.z.A.. A.z.F.. z.z.. F.z.A.. A.z.F.. z.z.A.. A.z.y.  ",
"                          v.z.z.z.C.D.E.E.H.z.A.. A.z.F.. z.z.. F.z.A.. A.z.F.. z.z.A.. A.z.y.  ",
"                          v.z.z.B.D.C.A.A.z.z.A.. A.z.F.. z.z.. F.z.A.. A.z.F.. H.z.C.. H.z.y.  ",
"                          v.z.z.H.E.. . . D.A.E.. E.G.D.. G.G.. D.B.E.. E.B.F.. E.F.D.A.z.z.y.  ",
"    . . . . . . . . . . . v.z.z.A.. B.z.A.. A.z.z.z.z.z.z.z.z.z.z.z.z.z.z.z.F.. z.z.z.z.z.z.y.  ",
"    . . . . . . . . . . . v.z.z.C.. H.z.H.D.H.z.z.z.z.z.z.z.z.z.z.z.z.z.z.z.F.. z.z.z.z.z.z.y.  ",
"    . . . . . . . . . . . v.z.z.z.G.F.F.G.H.z.z.z.z.z.z.z.z.z.z.z.z.z.z.z.B.F.F.F.z.z.z.z.z.y.  ",
"                          y.y.y.y.y.y.y.y.y.y.y.y.y.y.y.y.y.y.y.y.y.y.y.y.y.y.y.y.y.y.y.y.y.y.  ",
"                                                                                                "};
