/* XPM */
static char * logan_mixer_xpm[] = {
"48 48 20 1",
" 	c None",
".	c #8E8E8E",
"+	c #424242",
"@	c #AFAFAF",
"#	c #A0A0A0",
"$	c #999999",
"%	c #6B6B6B",
"&	c #FFFFFF",
"*	c #515151",
"=	c #49FF98",
"-	c #DDDDDD",
";	c #C2C2C2",
">	c #B1B1B1",
",	c #CBCBCB",
"'	c #CCCCCC",
")	c #9F9F9F",
"!	c #B9B9B9",
"~	c #969696",
"{	c #D4D4D4",
"]	c #A8A8A8",
"                                                ",
"                                                ",
"                                           ...  ",
"                                           ...  ",
"                                           ...  ",
"                                           ...  ",
"                                           ...  ",
"      +++++++++++++++++++++++++++++++++    ...  ",
"      +@@@@@@@@@@@@@@@@@@@@@@@@@@@@@@@+    ...  ",
"      +@@@@@@@@@@@@@@@@@@@@@@@@@@@@@@@+    ...  ",
"      +@@@@###@@@$$$$$$%@$$$$$$%@@@@@@+    ...  ",
"      +@@@@###@@@$&&&&&*@$&&&&&*@@==@@+    ...  ",
"      +@@@@###@@@$&&&&&*@$&&&&&*@@@@@@+    ...  ",
"      +@@@@###@@@%******@%******@@@@@@+    ...  ",
"      +@@@@###@@@@@###@@@@@###@@@@@@@@+    ...  ",
"      +@@$$$$$$%@@@###@@@@@###@@@@@@@@+    ...  ",
"      +@@$&&&&&*@@@###@@@@@###@@@@@@@@+    ...  ",
"      +@@$&&&&&*@@@###@@@@@###@@@@@@@@+    ...  ",
"      +@@%******@@@###@@@@@###@@@@@@@@+    ...  ",
"      +@@@@###@@@@@###@@@@@###@@@@@@@@+    ...  ",
"      +@@@@###@@@@@###@@@@@###@@@@@@@@+    ...  ",
"      +@@@@###@@@@@###@@@@@###@@@@@@@@+    ...  ",
"      +@@@@###@@@@@###@@@@@###@@@@@@@@+    ...  ",
"      +@@@@###@@@@@###@@@@@###@@@@@@@@+    ...  ",
"      +@@@@###@@@@@###@@@@@###@@@@@@@@+    ...  ",
"      +@@@@###@@@@@###@@@@@###@@@@@@@@+    ...  ",
"      +@@@@@@@@@@@@@@@@@@@@@@@@@@@@@@@+    ...  ",
"      +@@@@@@@@@@@@@@@@@@@@@@@@@@@@@@@+    ...  ",
"      +++++++++++++++++++++++++++++++++    ...  ",
"                                           ...  ",
"                                           ...  ",
"                                           ...  ",
"                                           ...  ",
"                                           ...  ",
"             &&&&&&&&&&&&&&&&&&&&&&&&&&&&&&&&&% ",
"             &-----------;>-------------------% ",
"             &-----------..;------------------% ",
"             &-----------,,-------------------% ",
"             ').!~.!>.~{{].;).~,~)-{)].>-]~]]~% ",
"             &].{{.~-!.;-;.;-).;>--))-!.,{.~)~% ",
"             &].--.]-;.;-;.;-{~.---.~]).;-.]--% ",
"             &].--.]-;.;-;.;--).!--.]-----.]--% ",
"             &].--.]-;.;-;.;-!;).{-).{->{-.]--% ",
"  ...........'~.!!.~,).)!).)]~,>.~!{~.~;-].~!-% ",
"  ...........&--------------------------------% ",
"  ...........&--------------------------------% ",
"             %%%%%%%%%%%%%%%%%%%%%%%%%%%%%%%%%% ",
"                                                "};
