/* XPM */
static char * logan_terminal_xpm[] = {
"48 48 15 1",
" 	c None",
".	c #8E8E8E",
"+	c #D8D8D8",
"@	c #000000",
"#	c #7F5F5F",
"$	c #FFFFFF",
"%	c #6B6B6B",
"&	c #DDDDDD",
"*	c #CBCBCB",
"=	c #A8A8A8",
"-	c #D4D4D4",
";	c #9F9F9F",
">	c #969696",
",	c #B9B9B9",
"'	c #C2C2C2",
"                                                ",
"                                                ",
"                                           ...  ",
"  ++++++++++++++++++++++++++++++++++@      ...  ",
"  +#################################@      ...  ",
"  +#################################@      ...  ",
"  +@@@@@@@+++@@@@@@@@@@@@@@@@@@@@@@@@      ...  ",
"  +@++@++@+@+@@@@@@@@@@@@@@@@@@@@@@@@      ...  ",
"  +@+@@@+@+@+@@@@@@@@@@@@@@@@@@@@@@@@      ...  ",
"  +@++@++@+@+@@@@@@@@@@@@@@@@@@@@@@@@      ...  ",
"  +@@@@@@@+++@@@@@@@@@@@@@@@@@@@@@@@@      ...  ",
"  +@@@@@@@@@@@@@@@@@@@@@@@@@@@@@@@@@@      ...  ",
"  +@@@@@@@@@@@@@@@@@@@@@@@@@@@@@@@@@@      ...  ",
"  +@@@@@@@@@@@@@@@@@@@@@@@@@@@@@@@@@@      ...  ",
"  +@@@@@@@@@@@@@@@@@@@@@@@@@@@@@@@@@@      ...  ",
"  +@@@@@@@@@@@@@@@@@@@@@@@@@@@@@@@@@@      ...  ",
"  +@@@@@@@@@@@@@@@@@@@@@@@@@@@@@@@@@@      ...  ",
"  +@@@@@@@@@@@@@@@@@@@@@@@@@@@@@@@@@@      ...  ",
"  +@@@@@@@@@@@@@@@@@@@@@@@@@@@@@@@@@@      ...  ",
"  +@@@@@@@@@@@@@@@@@@@@@@@@@@@@@@@@@@      ...  ",
"  +@@@@@@@@@@@@@@@@@@@@@@@@@@@@@@@@@@      ...  ",
"  +@@@@@@@@@@@@@@@@@@@@@@@@@@@@@@@@@@      ...  ",
"  +@@@@@@@@@@@@@@@@@@@@@@@@@@@@@@@@@@      ...  ",
"  +@@@@@@@@@@@@@@@@@@@@@@@@@@@@@@@@@@      ...  ",
"  +@@@@@@@@@@@@@@@@@@@@@@@@@@@@@@@@@@      ...  ",
"  +@@@@@@@@@@@@@@@@@@@@@@@@@@@@@@@@@@      ...  ",
"  +@@@@@@@@@@@@@@@@@@@@@@@@@@@@@@@@@@      ...  ",
"                                           ...  ",
"                                           ...  ",
"                                           ...  ",
"                                           ...  ",
"                                           ...  ",
"                                           ...  ",
"                                           ...  ",
"             $$$$$$$$$$$$$$$$$$$$$$$$$$$$$$$$$% ",
"             $&&&&&&&&&&&&&&&&&&&&&&&&&&&&&&&&% ",
"             $&&&&&&&&&&&&&&&*=.&&&&&&&&&&&&&&% ",
"             $&&&&&&&&&&&&&&&&=.&&&&&&&&&&&&&&% ",
"             $&&&&&&&&&&&&&&&&=.&&&&&&&&&&&&&&% ",
"             $&&&&&&&&&&-;;>,&=.,>.,&&&&&&&&&&% ",
"             $&&&&&&&&&&=.--=&=.'&;.&&&&&&&&&&% ",
"             $&&&&&&&&&&,..=-&=.&&=.&&&&&&&&&&% ",
"             $&&&&&&&&&&-';.>&=.&&=.&&&&&&&&&&% ",
"  ...........$&&&&&&&&&&=-&;.&=.&&=.&&&&&&&&&&% ",
"  ...........$&&&&&&&&&&,.=;'*>.,*>.,&&&&&&&&&% ",
"  ...........$&&&&&&&&&&&&&&&&&&&&&&&&&&&&&&&&% ",
"             %%%%%%%%%%%%%%%%%%%%%%%%%%%%%%%%%% ",
"                                                "};
