/* XPM */
static char * logan_icq_xpm[] = {
"48 48 32 1",
" 	c None",
".	c #5F920F",
"+	c #8E8E8E",
"@	c #9DF10C",
"#	c #347744",
"$	c #8E8357",
"%	c #D7BB31",
"&	c #665922",
"*	c #DBBF32",
"=	c #C5AC2D",
"-	c #AF9928",
";	c #C9AF2D",
">	c #B39C28",
",	c #9D8924",
"'	c #88761F",
")	c #B79F29",
"!	c #A18C24",
"~	c #8C7A1F",
"{	c #8F7D20",
"]	c #FFFFFF",
"^	c #C0C0C0",
"/	c #D9D9D9",
"(	c #6B6B6B",
"_	c #DDDDDD",
":	c #CBCBCB",
"<	c #969696",
"[	c #D4D4D4",
"}	c #9F9F9F",
"|	c #B9B9B9",
"1	c #B1B1B1",
"2	c #A8A8A8",
"3	c #C2C2C2",
"                                                ",
"                                                ",
"                 .                         +++  ",
"                .@.                        +++  ",
"               .@@@.                       +++  ",
"       ....    .@@@.   ....                +++  ",
"       .@@@@. .@@@@@..@@@@.                +++  ",
"       .@@@@@..@@@@@.@@@@@.                +++  ",
"       .@@@@@@.@@@@@@@@@@@.                +++  ",
"        @@@@@@.@@@@.@@@@@@                 +++  ",
"        #@@@@@..@@@.@@@@@.                 +++  ",
"         .@@@@..@@@.@@@@.                  +++  ",
"        .......@.$.........                +++  ",
"      ..@@@@..@@$%&@@..@@@@..              +++  ",
"     .@@@@@@@@.$*=-&.@@@@@@@@.             +++  ",
"    .@@@@@@@@@$*;>,'&@@@@@@@@@.            +++  ",
"     .@@@@@@@@.$)!~&.@@@@@@@@.             +++  ",
"      ..@@@....@&{&....@@@@..              +++  ",
"        ..@@@@.@.&..@@@@...                +++  ",
"        .@@@@@..@@@.@@@@@.                 +++  ",
"        @@@@@@..@@@.@@@@@@                 +++  ",
"       .@@@@@@.@@@@@@@@@@@.                +++  ",
"       .@@@@@..@@@@@.@@@@@.                +++  ",
"       .@@@@. .@@@@@..@@@@.                +++  ",
"       ....   .@@@@@.  ....                +++  ",
"               .@@@.                       +++  ",
"               .@@@.                       +++  ",
"                .@.                        +++  ",
"                 .                         +++  ",
"                                           +++  ",
"                                           +++  ",
"                                           +++  ",
"                                           +++  ",
"                                           +++  ",
"             ]]]]]]]]^/]]]]]]]]]]]]]]]]]]]]]]]( ",
"             ]______:+<_______________________( ",
"             ]_______:[_______________________( ",
"             ]______[}+__|}<1[_|22}<__________( ",
"             ]_______2+_:+::+::+:_2+__________( ",
"             ]_______2+_2+____2+__2+__________( ",
"             ]_______2+_2+____2+__2+__________( ",
"             ]_______2+_3+|_3:|+|_}+__________( ",
"             ]______:<+|_1+<1__1+}}+__________( ",
"  +++++++++++]____________________2+__________( ",
"  +++++++++++]____________________2+__________( ",
"  +++++++++++]___________________|22|_________( ",
"             (((((((((((((((((((((((((((((((((( ",
"                                                "};
