/* XPM */
static char * logan_audio_xpm[] = {
"48 48 516 2",
"  	c None",
". 	c #7F7F7F",
"+ 	c #000000",
"@ 	c #8E8E8E",
"# 	c #929292",
"$ 	c #B3B3B3",
"% 	c #A4A4A4",
"& 	c #979797",
"* 	c #898989",
"= 	c #5D5D5D",
"- 	c #B2B2B2",
"; 	c #AEAEAE",
"> 	c #A0A0A0",
", 	c #939393",
"' 	c #858585",
") 	c #777777",
"! 	c #696969",
"~ 	c #565656",
"{ 	c #AAAAAA",
"] 	c #9C9C9C",
"^ 	c #8F8F8F",
"/ 	c #818181",
"( 	c #737373",
"_ 	c #656565",
": 	c #585858",
"< 	c #4A4A4A",
"[ 	c #2E2E2E",
"} 	c #A9A9A9",
"| 	c #989898",
"1 	c #8B8B8B",
"2 	c #7D7D7D",
"3 	c #6F6F6F",
"4 	c #626262",
"5 	c #545454",
"6 	c #464646",
"7 	c #383838",
"8 	c #2A2A2A",
"9 	c #959595",
"0 	c #878787",
"a 	c #797979",
"b 	c #6B6B6B",
"c 	c #5E5E5E",
"d 	c #505050",
"e 	c #424242",
"f 	c #343434",
"g 	c #272727",
"h 	c #181818",
"i 	c #867D83",
"j 	c #7D7380",
"k 	c #67646F",
"l 	c #70737B",
"m 	c #7A7E83",
"n 	c #99999B",
"o 	c #999999",
"p 	c #838383",
"q 	c #757575",
"r 	c #676767",
"s 	c #5A5A5A",
"t 	c #4C4C4C",
"u 	c #3E3E3E",
"v 	c #313131",
"w 	c #232323",
"x 	c #151515",
"y 	c #060606",
"z 	c #806A71",
"A 	c #502B3A",
"B 	c #503346",
"C 	c #5B4A5E",
"D 	c #696372",
"E 	c #787B84",
"F 	c #878C92",
"G 	c #939296",
"H 	c #8F8C8E",
"I 	c #848181",
"J 	c #878382",
"K 	c #747474",
"L 	c #646464",
"M 	c #484848",
"N 	c #3A3A3A",
"O 	c #2D2D2D",
"P 	c #1F1F1F",
"Q 	c #111111",
"R 	c #030303",
"S 	c #020202",
"T 	c #55474C",
"U 	c #301C23",
"V 	c #491E2C",
"W 	c #4F2E40",
"X 	c #5C485C",
"Y 	c #6C6575",
"Z 	c #7E828B",
"` 	c #91959A",
" .	c #9B9A9D",
"..	c #959194",
"+.	c #868385",
"@.	c #817068",
"#.	c #795E4D",
"$.	c #7B6F66",
"%.	c #515151",
"&.	c #525252",
"*.	c #444444",
"=.	c #363636",
"-.	c #292929",
";.	c #1B1B1B",
">.	c #0D0D0D",
",.	c #080808",
"'.	c #9A9396",
").	c #5A434D",
"!.	c #2C1119",
"~.	c #24191E",
"{.	c #431C28",
"].	c #4F293A",
"^.	c #5C4459",
"/.	c #6E6577",
"(.	c #848791",
"_.	c #9A9FA4",
":.	c #A3A1A4",
"<.	c #9A9697",
"[.	c #8C8482",
"}.	c #896C5B",
"|.	c #7E614B",
"1.	c #7B644B",
"2.	c #736959",
"3.	c #434343",
"4.	c #323232",
"5.	c #252525",
"6.	c #171717",
"7.	c #090909",
"8.	c #71616E",
"9.	c #4E3343",
"0.	c #3B1E29",
"a.	c #2C151C",
"b.	c #301D23",
"c.	c #4E2332",
"d.	c #5B3D53",
"e.	c #6F6478",
"f.	c #898D97",
"g.	c #A5A8AC",
"h.	c #AAA7AA",
"i.	c #9B9899",
"j.	c #947E73",
"k.	c #8D6D54",
"l.	c #8B7053",
"m.	c #897657",
"n.	c #817463",
"o.	c #7C7977",
"p.	c #040404",
"q.	c #868387",
"r.	c #68616A",
"s.	c #635261",
"t.	c #543748",
"u.	c #3D1D29",
"v.	c #2A191F",
"w.	c #461E2A",
"x.	c #593549",
"y.	c #706177",
"z.	c #8E929D",
"A.	c #AEB0B5",
"B.	c #AEABAD",
"C.	c #9E9491",
"D.	c #9A7861",
"E.	c #97785A",
"F.	c #9A8463",
"G.	c #978977",
"H.	c #8D8885",
"I.	c #828080",
"J.	c #9A9A9A",
"K.	c #767677",
"L.	c #767477",
"M.	c #746E76",
"N.	c #6C5B6A",
"O.	c #593B4C",
"P.	c #3C1C27",
"Q.	c #341B23",
"R.	c #552B3D",
"S.	c #6D5A71",
"T.	c #9498A4",
"U.	c #B9B9BD",
"V.	c #AFAAAC",
"W.	c #A48979",
"X.	c #9F7D5E",
"Y.	c #A68E6B",
"Z.	c #A79988",
"`.	c #A39F9D",
" +	c #9E9D9D",
".+	c #969494",
"++	c #8D8C8D",
"@+	c #818484",
"#+	c #7F8181",
"$+	c #808282",
"%+	c #818183",
"&+	c #7F7A81",
"*+	c #766674",
"=+	c #5E3E4F",
"-+	c #381C26",
";+	c #492531",
">+	c #6F5F6D",
",+	c #9B9CA3",
"'+	c #A7A6A8",
")+	c #A99B97",
"!+	c #A88366",
"~+	c #AE9471",
"{+	c #B2A698",
"]+	c #B4B1B0",
"^+	c #B7B5B6",
"/+	c #B4B3B3",
"(+	c #AAA8A8",
"_+	c #989594",
":+	c #9E9E9E",
"<+	c #888888",
"[+	c #8A8B8B",
"}+	c #8C8D8D",
"|+	c #8D9090",
"1+	c #8D8F90",
"2+	c #8B898C",
"3+	c #827480",
"4+	c #634655",
"5+	c #81787B",
"6+	c #B4ACB0",
"7+	c #CBCAC9",
"8+	c #B9AFA8",
"9+	c #A99379",
"0+	c #BBB1A6",
"a+	c #C2BFC0",
"b+	c #C9C7C7",
"c+	c #CBC9C8",
"d+	c #C7C3BF",
"e+	c #BCB6AE",
"f+	c #A9A296",
"g+	c #B5B5B5",
"h+	c #ABABAB",
"i+	c #9D9D9D",
"j+	c #606060",
"k+	c #8F8E8E",
"l+	c #949493",
"m+	c #9D9E9E",
"n+	c #9C9E9E",
"o+	c #98999B",
"p+	c #989498",
"q+	c #B0A8AC",
"r+	c #646061",
"s+	c #9A999A",
"t+	c #7B7977",
"u+	c #B6B0A9",
"v+	c #BDBAB8",
"w+	c #CBC8C9",
"x+	c #D6D3D1",
"y+	c #D8D3CA",
"z+	c #D8D1C0",
"A+	c #D3CAB6",
"B+	c #C9BFAA",
"C+	c #B6AD99",
"D+	c #BDBDBD",
"E+	c #BCBCBC",
"F+	c #848484",
"G+	c #767676",
"H+	c #6A6A6A",
"I+	c #8B8B8A",
"J+	c #979595",
"K+	c #9C9B9A",
"L+	c #A2A1A0",
"M+	c #A9A7A6",
"N+	c #ADABAB",
"O+	c #AFAEAE",
"P+	c #A8A8A8",
"Q+	c #C3C3C2",
"R+	c #787878",
"S+	c #7D7C7B",
"T+	c #E8E7E4",
"U+	c #D4CDBF",
"V+	c #E2D8C2",
"W+	c #E2D6BF",
"X+	c #DFD4BD",
"Y+	c #DACFB9",
"Z+	c #D1C6B1",
"`+	c #C1B6A4",
" @	c #BEBEBE",
".@	c #B0B0B0",
"+@	c #A2A2A2",
"@@	c #949494",
"#@	c #535353",
"$@	c #96938F",
"%@	c #A19E9A",
"&@	c #A9A5A1",
"*@	c #B0ACA8",
"=@	c #B7B4AF",
"-@	c #BDB9B5",
";@	c #C1BFBA",
">@	c #BDBAB6",
",@	c #D6D5D4",
"'@	c #7C7B7A",
")@	c #838280",
"!@	c #ECECE8",
"~@	c #D9CFC3",
"{@	c #E6D8C8",
"]@	c #E6D7C7",
"^@	c #E5D6C6",
"/@	c #E1D3C3",
"(@	c #DACCBD",
"_@	c #CCBFB1",
":@	c #C1C1C1",
"<@	c #A5A5A5",
"[@	c #7B7B7B",
"}@	c #6D6D6D",
"|@	c #5F5F5F",
"1@	c #2C2C2C",
"2@	c #99938D",
"3@	c #ACA79F",
"4@	c #B5B1A8",
"5@	c #BDB9AF",
"6@	c #C6C2B7",
"7@	c #CDC9BE",
"8@	c #D3D0C4",
"9@	c #D7D4C9",
"0@	c #C5C4C1",
"a@	c #C2C1C0",
"b@	c #888887",
"c@	c #DBDBDB",
"d@	c #939293",
"e@	c #A6A6A7",
"f@	c #CDCDCD",
"g@	c #C7C3C3",
"h@	c #D7D1D0",
"i@	c #DAD5D3",
"j@	c #DAD6D4",
"k@	c #D9D5D2",
"l@	c #D4D0CE",
"m@	c #C9C6C3",
"n@	c #B6B6B6",
"o@	c #A7A7A7",
"p@	c #8C8C8C",
"q@	c #7E7E7E",
"r@	c #707070",
"s@	c #AAA7A2",
"t@	c #B0ADA3",
"u@	c #BCB9AF",
"v@	c #C4C2B7",
"w@	c #CECBC1",
"x@	c #D5D3CB",
"y@	c #DCDAD6",
"z@	c #E3E2E0",
"A@	c #D3D2D1",
"B@	c #D8D7D7",
"C@	c #D5D5D5",
"D@	c #CBCACB",
"E@	c #D7D4D7",
"F@	c #767880",
"G@	c #8B939C",
"H@	c #B3B6BB",
"I@	c #CAC8CA",
"J@	c #D5D0D0",
"K@	c #D8D2D2",
"L@	c #D6D0CF",
"M@	c #CEC8C7",
"N@	c #B8B8B8",
"O@	c #808080",
"P@	c #727272",
"Q@	c #575757",
"R@	c #494949",
"S@	c #3B3B3B",
"T@	c #242424",
"U@	c #B5B3B0",
"V@	c #B5B3AA",
"W@	c #C1BEB7",
"X@	c #CAC8C4",
"Y@	c #D4D3D1",
"Z@	c #DCDCDB",
"`@	c #E3E3E2",
" #	c #E7E6E5",
".#	c #E5E4E2",
"+#	c #D4D2D2",
"@#	c #CFCECE",
"##	c #E1E0E0",
"$#	c #D0D0D0",
"%#	c #B8AFB6",
"&#	c #836F82",
"*#	c #5E5A6A",
"=#	c #717885",
"-#	c #919CA6",
";#	c #AEB6BC",
">#	c #C3C5C9",
",#	c #CDCCCE",
"'#	c #CDC9CA",
")#	c #ACACAC",
"!#	c #9F9F9F",
"~#	c #919191",
"{#	c #595959",
"]#	c #4B4B4B",
"^#	c #3D3D3D",
"/#	c #2F2F2F",
"(#	c #222222",
"_#	c #141414",
":#	c #B7B5B3",
"<#	c #C4C3C2",
"[#	c #D0CFCE",
"}#	c #DADAD9",
"|#	c #E1E1E0",
"1#	c #E5E4E3",
"2#	c #E6E5E3",
"3#	c #E4E3E1",
"4#	c #E5E3E3",
"5#	c #F8F7F8",
"6#	c #FDFDFD",
"7#	c #F2F1F2",
"8#	c #DEDBDE",
"9#	c #BEABBA",
"0#	c #8C7489",
"a#	c #655B6C",
"b#	c #666877",
"c#	c #7E8794",
"d#	c #95A2AC",
"e#	c #A8B3BB",
"f#	c #B8BEC3",
"g#	c #5C5C5C",
"h#	c #4E4E4E",
"i#	c #404040",
"j#	c #161616",
"k#	c #B7B6B5",
"l#	c #C8C7C7",
"m#	c #DCDBDB",
"n#	c #E2E1E0",
"o#	c #E7E5E4",
"p#	c #F1EFEF",
"q#	c #FCFBFC",
"r#	c #F1F0F2",
"s#	c #DFD9DE",
"t#	c #C0A7BA",
"u#	c #957A90",
"v#	c #6E5F72",
"w#	c #646071",
"x#	c #727686",
"y#	c #85909D",
"z#	c #949FA8",
"A#	c #7A7A7A",
"B#	c #6C6C6C",
"C#	c #353535",
"D#	c #191919",
"E#	c #0B0B0B",
"F#	c #101010",
"G#	c #C6C5C4",
"H#	c #D2D1D0",
"I#	c #DCDBDA",
"J#	c #E2E1DF",
"K#	c #E8E6E5",
"L#	c #ECEAEA",
"M#	c #FAFAF9",
"N#	c #FCFCFD",
"O#	c #F5F4F5",
"P#	c #E2D6DE",
"Q#	c #C5A7BD",
"R#	c #9D7F97",
"S#	c #77657A",
"T#	c #655E70",
"U#	c #6B6B7C",
"V#	c #555555",
"W#	c #7C7C7C",
"X#	c #616161",
"Y#	c #454545",
"Z#	c #373737",
"`#	c #0F0F0F",
" $	c #A8A8A7",
".$	c #D0D0CF",
"+$	c #DADAD8",
"@$	c #E3E1DF",
"#$	c #EBE9E9",
"$$	c #F6F4F4",
"%$	c #F8F5F7",
"&$	c #E7D4E2",
"*$	c #CAA8C0",
"=$	c #A5849D",
"-$	c #806B81",
";$	c #837E89",
">$	c #636363",
",$	c #474747",
"'$	c #1E1E1E",
")$	c #AAA9A6",
"!$	c #DBD9D7",
"~$	c #E2E0DE",
"{$	c #E8E6E6",
"]$	c #F0EFEE",
"^$	c #FCFBFB",
"/$	c #FBF5FA",
"($	c #EBD2E4",
"_$	c #D1ABC6",
":$	c #AC94A6",
"<$	c #070707",
"[$	c #5B5B5B",
"}$	c #3C3C3C",
"|$	c #202020",
"1$	c #121212",
"2$	c #050505",
"3$	c #0E0E0E",
"4$	c #010101",
"5$	c #B1B0AE",
"6$	c #E0DEDD",
"7$	c #EAE8E8",
"8$	c #F8F6F6",
"9$	c #FFFEFE",
"0$	c #FBF2F9",
"a$	c #D4C2CE",
"b$	c #393939",
"c$	c #131313",
"d$	c #E0DEDE",
"e$	c #FBFAFA",
"f$	c #EEEEEE",
"g$	c #E2E2E2",
"h$	c #E4E4E4",
"i$	c #EFEFEF",
"j$	c #F3F3F3",
"k$	c #E7E7E7",
"l$	c #FFFFFF",
"m$	c #DDDDDD",
"n$	c #D2D2D2",
"o$	c #C8C8C8",
"p$	c #F0F0F0",
"q$	c #D4D4D4",
"                                            . . . . . . . . . . . . . . . . . . .               ",
"                                            . + + + + + + + + + + + + + + + + + +               ",
"                                            . + + + + + + + + + + + + + + + + + +     @ @ @     ",
"                                            . + + + + + + # $ % & * = + + + + + +     @ @ @     ",
"                                            . + + + + + - ; > , ' ) ! ~ + + + + +     @ @ @     ",
"                                            . + + + + @ { ] ^ / ( _ : < [ + + + +     @ @ @     ",
"                                            . + + + + } | 1 2 3 4 5 6 7 8 + + + +     @ @ @     ",
"                                            . + + + + 9 0 a b c d e f g h + + + +     @ @ @     ",
"                i j k l m n o               . + + + + p q r s t u v w x y + + + +     @ @ @     ",
"            z A B C D E F G H I J           . + + + + K L ~ M N O P Q R S + + + +     @ @ @     ",
"          T U V W X Y Z `  ...+.@.#.$.      . + + + + %.&.*.=.-.;.>.+ + ,.+ + + +     @ @ @     ",
"      '.).!.~.{.].^./.(._.:.<.[.}.|.1.2.    . + + + + + 3.4.5.6.7.+ + y + + + + +     @ @ @     ",
"      8.9.0.a.b.c.d.e.f.g.h.i.j.k.l.m.n.o.  . + + + + + + w x p.+ R 7.+ + + + + +     @ @ @     ",
"    q.r.s.t.u.v.w.x.y.z.A.B.C.D.E.F.G.H.I.  . + + + + + + + + + + + + + + + + + +     @ @ @     ",
"  J.K.L.M.N.O.P.Q.R.S.T.U.V.W.X.Y.Z.`. +.+++. + + + + + + + + + + + + + + + + + +     @ @ @     ",
"  @+#+$+%+&+*+=+-+;+>+,+'+)+!+~+{+]+^+/+(+_+. + + + + + + + + + + + + + + + + + +     @ @ @     ",
":+<+[+}+|+1+2+3+4+5+6+) 7+8+9+0+a+b+c+d+e+f+. + + + + + + * g+h+i+^ j++ + + + + +     @ @ @     ",
"] k+l+| ] m+n+o+p+q+r+s+t+u+v+w+x+y+z+A+B+C+. + + + + >.D+E+; > # F+G+H+y + + + +     @ @ @     ",
"I+J+K+L+M+N+O+P+Q+R+      S+T+U+V+W+X+Y+Z+`+. + + + + E+ @.@+@@@0 a b = #@+ + + +     @ @ @     ",
"$@%@&@*@=@-@;@>@,@'@      )@!@~@{@]@^@/@(@_@. + + + R+:@$ <@& * [@}@|@&.*.1@+ + +     @ @ @     ",
"2@3@4@5@6@7@8@9@0@a@b@c@d@e@f@g@h@i@j@k@l@m@. + + + n@g+o@J.p@q@r@4 5 6 7 f + + +     @ @ @     ",
"s@t@u@v@w@x@y@z@A@B@C@+@D@E@F@G@H@I@J@K@L@M@. + + + N@{ ] @ O@P@L Q@R@S@O T@+ + +     @ @ @     ",
"U@V@W@X@Y@Z@`@ #.#+#@###$#%#&#*#=#-#;#>#,#'#. + + + )#!#~#p q r {#]#^#/#(#_#+ + +     @ @ @     ",
"  :#<#[#}#|#1#2#3#4#5#6#7#8#9#0#a#b#c#d#e#f#. + + + +@, ' ) H+g#h#i#4.T@j#>.+ + +     @ @ @     ",
"  k#l#A@m#n#.#o#1#p#6#6#q#r#s#t#u#v#w#x#y#z#. + + + ^ <+A#B#c d e C#g D#E#F#+ + +     @ @ @     ",
"    G#H#I#J#2#K#L#M#6#6#6#N#O#P#Q#R#S#T#U#  . + + + V#W#3 X##@Y#Z#-.;.>.+ `#+ + +     @ @ @     ",
"     $.$+$@$o##$$$6#6#6#6#6#6#%$&$*$=$-$;$  . + + + + 3 >$V#,$N 1@'$F#S `#+ + + +     @ @ @     ",
"      )$!$~${$]$^$6#6#6#6#6#6#6#/$($_$:$    . + + + + <$[$< }$[ |$1$2$3$4$+ + + +     @ @ @     ",
"        5$6$7$8$6#6#6#6#6#6#6#6#9$0$a$      . + + + + + + Z#b$T@j#c$1$+ + + + + +     @ @ @     ",
"            d$e$6#6#6#6#6#6#6#6#f$          . + + + + + + + + + + + + + + + + + +     @ @ @     ",
"                g$h$i$6#j$k$g$              . + + + + + + + + + + + + + + + + + +     @ @ @     ",
"                                                                                      @ @ @     ",
"                                                                                      @ @ @     ",
"                                                                                      @ @ @     ",
"                          l$l$l$l$l$l$l$l$l$l$l$l$l$l$l$l$l$l$l$l$l$l$l$l$l$l$l$l$l$l$l$l$l$b   ",
"                          l$m$m$m$m$m$m$m$m$m$m$m$m$m$m$m$m$m$m$m$m$m$m$m$m$m$m$m$m$m$m$m$m$b   ",
"                          l$m$m$m$m$m$m$m$m$m$m$m$m$m$m$m$m$m$$ @@:+m$n$:+n$m$m$m$m$m$m$m$m$b   ",
"                          l$m$m$m$m$m$m$m$m$m$m$m$m$m$m$m$m$m$m$. :+m$:+. :+m$m$m$m$m$m$m$m$b   ",
"                          l$m$m$m$m$m$m$m$m$m$m$m$m$m$m$m$m$m$m$. :+m$n$D+m$m$m$m$m$m$m$m$m$b   ",
"                          l$} * @@* D+m$} . D+n$} . D+m$n$:+@@@@. :+m$$ . :+m$n$@@@@* :+n$m$b   ",
"                          l$. o$m$. :+m$D+. D+m$D+. D+m$} * m$m$. :+m$m$. :+m$@@* m$m$. @@m$b   ",
"                          l$n$D+:+. :+m$D+. D+m$D+. D+m$. :+m$m$. :+m$m$. :+m$. :+m$m$:+. m$b   ",
"                          p$* :+m$. :+m$D+. D+m$D+. D+m$. :+m$m$. :+m$m$. :+m$. :+m$m$:+. m$b   ",
"    @ @ @ @ @ @ @ @ @ @ @ q$. $ m$. :+m$D+. $ m$} . D+m$* * m$n$. :+m$m$. :+m$@@@@m$m$* @@m$b   ",
"    @ @ @ @ @ @ @ @ @ @ @ p$* . } * . D+n$* . @@} . @@m$D+* @@D+. * o$:+. * o$n$@@@@* @@n$m$b   ",
"    @ @ @ @ @ @ @ @ @ @ @ l$m$m$m$m$m$m$m$m$m$m$m$m$m$m$m$m$m$m$m$m$m$m$m$m$m$m$m$m$m$m$m$m$b   ",
"                          b b b b b b b b b b b b b b b b b b b b b b b b b b b b b b b b b b   ",
"                                                                                                "};
