/* XPM */
static char * logan_docs_xpm[] = {
"48 48 216 2",
"  	c None",
". 	c #8E8E8E",
"+ 	c #9B9B9B",
"@ 	c #FFFFFF",
"# 	c #8D8D8D",
"$ 	c #C4C4C4",
"% 	c #A6A6A6",
"& 	c #D2D2D2",
"* 	c #9D9D9D",
"= 	c #D4D4D4",
"- 	c #B1B1B1",
"; 	c #B2B2B2",
"> 	c #D8D8D8",
", 	c #8A8A8A",
"' 	c #ADADAD",
") 	c #D1D1D1",
"! 	c #E4E4E4",
"~ 	c #BBBBBB",
"{ 	c #F8F8F8",
"] 	c #DDDDDD",
"^ 	c #9A9A9A",
"/ 	c #BDBDBD",
"( 	c #A5A8A7",
"_ 	c #5C6665",
": 	c #C6C6C6",
"< 	c #FDFDFD",
"[ 	c #55605E",
"} 	c #7A7D7C",
"| 	c #C9C9C9",
"1 	c #9B9D9D",
"2 	c #545E5E",
"3 	c #7B7B7B",
"4 	c #D0D0D0",
"5 	c #FAFAFA",
"6 	c #A7A8A8",
"7 	c #576760",
"8 	c #7B7D7D",
"9 	c #7A7A7B",
"0 	c #6C6C74",
"a 	c #CFCFCF",
"b 	c #949797",
"c 	c #545D5D",
"d 	c #7D7D7D",
"e 	c #656777",
"f 	c #24272C",
"g 	c #DBDBDB",
"h 	c #F6F6F6",
"i 	c #9DA09E",
"j 	c #596161",
"k 	c #7D7E7E",
"l 	c #666771",
"m 	c #242532",
"n 	c #1F2022",
"o 	c #8D9090",
"p 	c #54635D",
"q 	c #7F7F7F",
"r 	c #63636B",
"s 	c #1F242D",
"t 	c #212121",
"u 	c #222222",
"v 	c #E6E6E6",
"w 	c #FEFEFE",
"x 	c #919191",
"y 	c #F3F3F3",
"z 	c #929494",
"A 	c #5A6363",
"B 	c #7F8080",
"C 	c #626274",
"D 	c #1B222B",
"E 	c #232323",
"F 	c #1D1D1D",
"G 	c #D9D9D9",
"H 	c #8F8F8F",
"I 	c #6F6F6F",
"J 	c #868C89",
"K 	c #54605D",
"L 	c #818181",
"M 	c #5B5E6A",
"N 	c #1F222C",
"O 	c #242424",
"P 	c #1F1F1F",
"Q 	c #555656",
"R 	c #818686",
"S 	c #F7F7F7",
"T 	c #7A7A7A",
"U 	c #B9B9B9",
"V 	c #E9E9E9",
"W 	c #EFEFEF",
"X 	c #878A8A",
"Y 	c #5C6464",
"Z 	c #818281",
"` 	c #79797C",
" .	c #595D6A",
"..	c #1F1F21",
"+.	c #242525",
"@.	c #1A1A1A",
"#.	c #4D504C",
"$.	c #5A6164",
"%.	c #5C5F63",
"&.	c #868386",
"*.	c #DFDFDF",
"=.	c #9F9F9F",
"-.	c #5F5F5F",
";.	c #7F8383",
">.	c #545C5C",
",.	c #838383",
"'.	c #595968",
").	c #1B1F2B",
"!.	c #262626",
"~.	c #494947",
"{.	c #5D5D5B",
"].	c #6F7676",
"^.	c #5C6A6A",
"/.	c #545D61",
"(.	c #79777B",
"_.	c #F5F5F5",
":.	c #F9F9F9",
"<.	c #747474",
"[.	c #AAAAAA",
"}.	c #ECECEC",
"|.	c #7D8080",
"1.	c #5E6D65",
"2.	c #79797B",
"3.	c #575760",
"4.	c #151C24",
"5.	c #272727",
"6.	c #4A4A48",
"7.	c #5E5E5C",
"8.	c #8B8B8B",
"9.	c #636468",
"0.	c #616E71",
"a.	c #576262",
"b.	c #7A7E7F",
"c.	c #AFAFAF",
"d.	c #787C7C",
"e.	c #575E5E",
"f.	c #505468",
"g.	c #1A1E23",
"h.	c #333333",
"i.	c #6C6C6C",
"j.	c #828282",
"k.	c #767676",
"l.	c #888888",
"m.	c #7C7C7C",
"n.	c #757579",
"o.	c #5F6669",
"p.	c #575B62",
"q.	c #6E7474",
"r.	c #E8E8E8",
"s.	c #77807B",
"t.	c #606767",
"u.	c #7A7A7C",
"v.	c #4F5461",
"w.	c #1B1B22",
"x.	c #282828",
"y.	c #2F2F2F",
"z.	c #616161",
"A.	c #636A6A",
"B.	c #686C73",
"C.	c #595E62",
"D.	c #757478",
"E.	c #C6C7C7",
"F.	c #717676",
"G.	c #5A6461",
"H.	c #828284",
"I.	c #4C4D57",
"J.	c #191C20",
"K.	c #1B1B1B",
"L.	c #121212",
"M.	c #2E2E2E",
"N.	c #666666",
"O.	c #808080",
"P.	c #7E7E7E",
"Q.	c #757B7B",
"R.	c #5B6767",
"S.	c #586166",
"T.	c #6E6B71",
"U.	c #737878",
"V.	c #616868",
"W.	c #7B7B7E",
"X.	c #515165",
"Y.	c #141A20",
"Z.	c #292929",
"`.	c #1C1C1C",
" +	c #161616",
".+	c #2B2B2B",
"++	c #565656",
"@+	c #696A6C",
"#+	c #667375",
"$+	c #5E6562",
"%+	c #5E6764",
"&+	c #818183",
"*+	c #434753",
"=+	c #171B22",
"-+	c #252525",
";+	c #0E0E0E",
">+	c #7D7D83",
",+	c #484E5F",
"'+	c #191919",
")+	c #2A2A2A",
"!+	c #4C4C4C",
"~+	c #3E4150",
"{+	c #181920",
"]+	c #171717",
"^+	c #5C5C5C",
"/+	c #7E7E81",
"(+	c #4B4B53",
"_+	c #13181C",
":+	c #1E1E1E",
"<+	c #141414",
"[+	c #323232",
"}+	c #6B6B6B",
"|+	c #A8A8A8",
"1+	c #969696",
"2+	c #C2C2C2",
"3+	c #CBCBCB",
"                                                                                                ",
"                                                                                                ",
"                                                                                      . . .     ",
"                                          + @                                         . . .     ",
"                                        # @ @ @ @ $                                   . . .     ",
"                                      % @ @ @ @ @ @ @ &                               . . .     ",
"                                    * @ @ @ @ @ @ @ @ @ @ =                           . . .     ",
"                                  - @ @ @ @ ; @ @ @ @ @ @ @ @ > ,                     . . .     ",
"                                ' @ @ @ @ ; ) ; ; @ @ @ @ @ @ @ @ !                   . . .     ",
"                              ~ { @ @ @ ; ) ) ) ) ; ; @ @ @ @ @ @ @ @ ] ^             . . .     ",
"                            / @ @ @ @ ; ) ) ) ) ) ) ) ; ; @ @ @ @ @ @ ( _             . . .     ",
"                          : @ @ @ @ ; ) ) ) ) ) ) ) ) ) ) ; @ @ @ < ; [ }             . . .     ",
"                        | @ @ @ @ ; ) ) ) ) ) ) ) ) ) ) ; @ @ @ @ 1 2 3 3             . . .     ",
"                      4 @ @ @ @ @ @ ; ; ) ) ) ) ) ) ) ; @ @ @ 5 6 7 8 9 0             . . .     ",
"                    a @ @ @ @ @ @ @ @ @ ; ; ) ) ) ) ; @ @ @ @ b c d d e f             . . .     ",
"                  g @ @ @ @ @ @ @ @ @ @ @ @ ; ; ) ; @ @ @ h i j k 9 l m n             . . .     ",
"                = @ @ @ @ @ @ @ @ @ @ @ @ @ @ @ ; @ @ @ @ o p q q r s t u             . . .     ",
"              v w w w w x q | w w w @ @ @ w w w w w w y z A B 9 C D E F               . . .     ",
"            G @ @ @ @ @ @ G H I a @ @ @ @ @ @ @ @ @ @ J K L L M N O P                 . . .     ",
"          Q R > S @ @ @ x T U V , T U @ @ @ @ @ @ W X Y Z `  ...+.@.                  . . .     ",
"          #.$.%.&.g @ @ @ *.=.-.| *.=.@ @ @ @ @ @ ;.>.,.,.'.).!.F                     . . .     ",
"          ~.{.].^./.(.a _.w @ :.H <.[.w @ w @ }.|.1.,.2.3.4.5.                        . . .     ",
"          6.7.3 8.9.0.a.b.& 5 @ @ ! c.@ @ @ 5 d.e.,.,.f.g.5.@.                        . . .     ",
"          h.i.j.k.l.m.n.o.p.q.: y @ @ @ @ r.s.t.j.u.v.w.x.                            . . .     ",
"          P @.y.z.8.3 3 8.A.B.C.D.E.y @ y F.G.,.H.I.J.x.                              . . .     ",
"            K.F L.M.N.O.3 ,.P.Q.R.S.T.- U.V.O.W.X.Y.Z.                                . . .     ",
"                F `. +.+++8.3 3 8.@+#+$+%+,.&+*+=+Z.                                  . . .     ",
"                      -+;+x.z.P.L d O.P.P.>+,+'+)+                                    . . .     ",
"                        '+t @.E !+8.3 ,.&+~+{+)+                                      . . .     ",
"                              u ]+E ^+/+(+_+.+                                        . . .     ",
"                                  :+ +<+L..+                                          . . .     ",
"                                      M.[+                                            . . .     ",
"                                                                                      . . .     ",
"                                                                                      . . .     ",
"                          @ @ @ @ @ @ @ @ @ @ @ @ @ @ @ @ @ @ @ @ @ @ @ @ @ @ @ @ @ @ @ @ @ }+  ",
"                          @ ] ] ] ] ] ] ] ] ] ] ] ] ] ] ] ] ] ] ] ] ] ] ] ] ] ] ] ] ] ] ] ] }+  ",
"                          @ ] ] ] ] ] ] ] |+1+2+] ] ] ] ] ] ] ] ] ] ] ] ] ] ] ] ] ] ] ] ] ] }+  ",
"                          @ ] ] ] ] ] ] ] 2+. 2+] ] ] ] ] ] ] ] ] ] ] ] ] ] ] ] ] ] ] ] ] ] }+  ",
"                          @ ] ] ] ] ] ] ] 2+. 2+] ] ] ] ] ] ] ] ] ] ] ] ] ] ] ] ] ] ] ] ] ] }+  ",
"                          @ ] ] ] ] 3+1+|+1+. 2+] = =.=.1+|+= ] = =.=.. - ] - 1+=.=.] ] ] ] }+  ",
"                          @ ] ] ] ] 1+- ] 2+. 2+] =.1+] ] . =.] - =.] - 1+2+. U ] =.] ] ] ] }+  ",
"                          @ ] ] ] 2+. 2+] 2+. 2+] . |+] ] |+. ] . |+] ] ] = . . =.2+] ] ] ] }+  ",
"                          @ ] ] ] 2+. 2+] 2+. 2+] . |+] ] |+. ] . |+] ] ] = = |+. . 3+] ] ] }+  ",
"    . . . . . . . . . . . @ ] ] ] 3+. - ] U . 2+] =.=.] ] 1+=.] =.. = ] |+2+U ] U . 2+] ] ] }+  ",
"    . . . . . . . . . . . @ ] ] ] ] - . - - . =.] = =.=.1+=.= ] = 1+. 1+2+3+1+=.=.- ] ] ] ] }+  ",
"    . . . . . . . . . . . @ ] ] ] ] ] ] ] ] ] ] ] ] ] ] ] ] ] ] ] ] ] ] ] ] ] ] ] ] ] ] ] ] }+  ",
"                          }+}+}+}+}+}+}+}+}+}+}+}+}+}+}+}+}+}+}+}+}+}+}+}+}+}+}+}+}+}+}+}+}+}+  ",
"                                                                                                "};
