/* XPM */
static char * logan_network_xpm[] = {
"48 49 43 1",
" 	c None",
".	c #8E8E8E",
"+	c #B2B2B2",
"@	c #FFFFFF",
"#	c #F8F8F8",
"$	c #F1F1F1",
"%	c #E9E9E9",
"&	c #E2E2E2",
"*	c #DADADA",
"=	c #D3D3D3",
"-	c #565656",
";	c #FDFDFD",
">	c #F5F5F5",
",	c #EEEEEE",
"'	c #E6E6E6",
")	c #DFDFDF",
"!	c #D7D7D7",
"~	c #FAFAFA",
"{	c #F2F2F2",
"]	c #EBEBEB",
"^	c #E3E3E3",
"/	c #DCDCDC",
"(	c #D4D4D4",
"_	c #F7F7F7",
":	c #EFEFEF",
"<	c #E8E8E8",
"[	c #E0E0E0",
"}	c #D9D9D9",
"|	c #B7B7B7",
"1	c #FBFBFB",
"2	c #F4F4F4",
"3	c #ECECEC",
"4	c #E5E5E5",
"5	c #DDDDDD",
"6	c #D6D6D6",
"7	c #4CFF99",
"8	c #6B6B6B",
"9	c #CBCBCB",
"0	c #B1B1B1",
"a	c #A8A8A8",
"b	c #B9B9B9",
"c	c #9F9F9F",
"d	c #969696",
"                                                ",
"                                                ",
"                                                ",
"                                           ...  ",
"     +++++++++++++                         ...  ",
"     +@@@@@#$%&*=-                         ...  ",
"     +@@@@;>,')!=-                         ...  ",
"     +@@@@~{]^/(=-                         ...  ",
"     +@@@@_:<[}==-|||||||||||||||          ...  ",
"     +@@@123456==-...............          ...  ",
"     +@@@#$%&*===-             |.          ...  ",
"     +@@;>,')!===-             |.          ...  ",
"     +@@~{]^/(===-             |.          ...  ",
"     +------------             |.          ...  ",
"    +++++++++++++++            |.          ...  ",
"    +..........77.-            |.          ...  ",
"    +.............-       +++++++++++++    ...  ",
"    +--------------       +@@@@@#$%&*=-    ...  ",
"                          +@@@@;>,')!=-    ...  ",
"                          +@@@@~{]^/(=-    ...  ",
"                          +@@@@_:<[}==-    ...  ",
"                          +@@@123456==-    ...  ",
"                          +@@@#$%&*===-    ...  ",
"                          +@@;>,')!===-    ...  ",
"                          +@@~{]^/(===-    ...  ",
"                          +------------    ...  ",
"                         +++++++++++++++   ...  ",
"                         +..........77.-   ...  ",
"                         +.............-   ...  ",
"                         +--------------   ...  ",
"                                           ...  ",
"                                           ...  ",
"                                           ...  ",
"                                           ...  ",
"                                           ...  ",
"             @@@@@@@@@@@@@@@@@@@@@@@@@@@@@@@@@8 ",
"             @555555555555555555555555555555558 ",
"             @555555555555555555555(95555555558 ",
"             @5555555555555555555550a5555555558 ",
"             @555555bc.bd.9550cdc(b.da555555558 ",
"             @5555555a.((.a5b.((.05.a5555555558 ",
"             @5555555a.55.a5a.aa.a5.a5555555558 ",
"             @5555555a.55.a5a.55555.a5555555558 ",
"             @5555555a.55.a5b.b59b5.c5555555558 ",
"  ...........@555555bd.bb.db5a..055a.d955555558 ",
"  ...........@555555555555555555555555555555558 ",
"  ...........@555555555555555555555555555555558 ",
"             8888888888888888888888888888888888 ",
"                                                "};
