/* XPM */
static char *image[] = {
"48 48 232 2",
"   c None",
"00 c #000000",
"10 c #7a603a",
"20 c #cdaa76",
"30 c #cda975",
"40 c #cda974",
"50 c #cca872",
"60 c #cca771",
"70 c #cba670",
"80 c #cba56f",
"90 c #caa46d",
":0 c #caa46c",
";0 c #c9a36b",
"A0 c #c9a269",
"B0 c #c8a168",
"C0 c #c8a067",
"D0 c #c89f65",
"E0 c #c79e63",
"F0 c #c69d62",
"G0 c #c69d61",
"H0 c #c59c5f",
"I0 c #b79158",
"J0 c #080603",
"K0 c #7b6039",
"L0 c #c29656",
"M0 c #c29657",
"N0 c #7b6239",
"O0 c #b68d54",
"P0 c #c39758",
"Q0 c #c39757",
"R0 c #b78e53",
"S0 c #c3985a",
"T0 c #c39859",
"U0 c #c49a5c",
"V0 c #c49a5b",
"W0 c #c4995b",
"X0 c #c59a5c",
"Y0 c #c59c5d",
"Z0 c #c59b5d",
"a0 c #c69c5f",
"b0 c #c79e60",
"c0 c #c79d5f",
"d0 c #c69d5e",
"e0 c #c69c5e",
"f0 c #c69d5f",
"g0 c #c79f62",
"h0 c #c79e61",
"i0 c #c69e60",
"j0 c #c69e61",
"k0 c #c8a064",
"l0 c #c8a063",
"m0 c #c8a062",
"n0 c #c89f62",
"o0 c #c79f61",
"p0 c #c79f63",
"q0 c #c9a165",
"r0 c #c9a164",
"s0 c #c9a064",
"t0 c #c9a166",
"u0 c #cba369",
"v0 c #cba368",
"w0 c #caa267",
"x0 c #caa266",
"y0 c #caa165",
"z0 c #cba66b",
"01 c #caa569",
"11 c #caa468",
"21 c #caa367",
"31 c #cba56b",
"41 c #cca76d",
"51 c #cca76c",
"61 c #cba56a",
"71 c #cba468",
"81 c #cda86f",
"91 c #cca66c",
":1 c #cca66b",
";1 c #cea86f",
"A1 c #cda76d",
"B1 c #cda76c",
"C1 c #cfab73",
"D1 c #ceaa72",
"E1 c #cea971",
"F1 c #cea970",
"G1 c #cda86e",
"H1 c #cfab74",
"I1 c #d0ad76",
"J1 c #d0ac75",
"K1 c #d0ab73",
"L1 c #cfaa71",
"M1 c #cea96f",
"N1 c #d1ad76",
"O1 c #d1af78",
"P1 c #d1ae77",
"Q1 c #d0ad75",
"R1 c #d0ac74",
"S1 c #cfab72",
"T1 c #d2af79",
"U1 c #d3b07a",
"V1 c #d2af77",
"W1 c #d1ae76",
"X1 c #d1ad75",
"Y1 c #d0ac73",
"Z1 c #d3b27b",
"a1 c #d2b17a",
"b1 c #d2b078",
"c1 c #d1ae74",
"d1 c #d3b37d",
"e1 c #d4b37e",
"f1 c #d3b27c",
"g1 c #d2b079",
"h1 c #d1af76",
"i1 c #d5b480",
"j1 c #d5b47f",
"k1 c #d4b37d",
"l1 c #d3b17a",
"m1 c #d3b078",
"n1 c #d6b682",
"o1 c #d6b581",
"p1 c #d6b480",
"q1 c #d5b37e",
"r1 c #d4b27c",
"s1 c #d4b17a",
"t1 c #d7b784",
"u1 c #d6b883",
"v1 c #d6b783",
"w1 c #d6b781",
"x1 c #d4b47e",
"y1 c #d4b37b",
"z1 c #d7ba86",
"02 c #d8b986",
"12 c #d7b986",
"22 c #d7b885",
"32 c #d7b884",
"42 c #d6b782",
"52 c #d5b57f",
"62 c #d5b47d",
"72 c #d8bb89",
"82 c #d9ba88",
"92 c #d8ba86",
":2 c #d6b57f",
";2 c #dabc8a",
"A2 c #dabb89",
"B2 c #d9ba87",
"C2 c #d8b985",
"D2 c #d8b883",
"E2 c #d7b681",
"F2 c #dabd8c",
"G2 c #dabd8b",
"H2 c #d9bc8a",
"I2 c #d8ba87",
"J2 c #d8b984",
"K2 c #d7b882",
"L2 c #dbbf8f",
"M2 c #dbbe8e",
"N2 c #dbbe8d",
"O2 c #dbbd8c",
"P2 c #dabc8b",
"Q2 c #d9ba86",
"R2 c #d8b884",
"S2 c #dcc091",
"T2 c #dbbf8d",
"U2 c #dbbe8b",
"V2 c #d9ba85",
"W2 c #ddc393",
"X2 c #dcbe8c",
"Y2 c #dbbd8a",
"Z2 c #dabc88",
"a2 c #dabb86",
"b2 c #dec395",
"c2 c #dabd8a",
"d2 c #dabd88",
"e2 c #d9bb86",
"f2 c #dfc497",
"g2 c #dcc08f",
"h2 c #dcc08e",
"i2 c #dcbf8e",
"j2 c #dbbe8c",
"k2 c #dabd89",
"l2 c #dabc87",
"m2 c #e0c598",
"n2 c #dcc08d",
"o2 c #dcbf8d",
"p2 c #dbbe8a",
"q2 c #dbbc87",
"r2 c #e0c69a",
"s2 c #dac39d",
"t2 c #ddbf8d",
"u2 c #ddbf8c",
"v2 c #dcbf8c",
"w2 c #dcbe8b",
"x2 c #dcbe8a",
"y2 c #dcbd89",
"z2 c #dbbd88",
"03 c #dac39b",
"13 c #b7a689",
"23 c #e2ca9f",
"33 c #dbbf89",
"43 c #dcc08c",
"53 c #e2ca9e",
"63 c #b8a688",
"73 c #b9aa8b",
"83 c #e8d5b3",
"93 c #e4cfab",
":3 c #baa98c",
";3 c #aa8756",
"A3 c #a2783b",
"B3 c #a2773a",
"C3 c #ab854e",
"D3 c #9c8058",
"E3 c #c8a56f",
"F3 c #c59f65",
"G3 c #c6a168",
"H3 c #c6a167",
"I3 c #c09758",
"J3 c #be9453",
"K3 c #c5a066",
"L3 c #b59a6e",
"M3 c #b89d6f",
"N3 c #b2976b",
"O3 c #d0b07d",
"P3 c #cca76b",
"Q3 c #c9a263",
"R3 c #c9a264",
"S3 c #c9a976",
"T3 c #d3b788",
"U3 c #d7b883",
"V3 c #d7b781",
"W3 c #d9bb89",
"X3 c #a78f6b",
"Y3 c #c1ac82",
"Z3 c #c4ac84",
"a3 c #c1a982",
"                                                                                                ",
"                                                                                                ",
"              a3Z3Z3Z3Z3Z3Z3Z3Z3Z3Y3                                                            ",
"          X3W3V3V3V3V3V3V3V3V3V3V3U3T3                                                          ",
"          S3R3Q3Q3Q3Q3Q3Q3Q3Q3Q3Q3Q3P3O3N3M3M3M3M3M3M3M3M3M3M3M3M3M3M3M3M3M3M3M3L3              ",
"          K3J3J3J3J3J3J3J3J3J3J3J3J3J3I3H3G3G3G3G3G3G3K3F3F3F3F3F3F3F3F3F3F3F3F3K3E3D3          ",
"          C3B3B3B3B3B3B3B3B3B3B3B3B3B3B3B3B3B3B3B3B3B3B3B3B3B3B3B3B3B3B3B3B3B3B3B3A3;3          ",
"        :3938383838383838383838383838383838383838383838383838383838383838383838383839373        ",
"      635343333333333333333333333333333333333333333333333333333333333333333333333333432313      ",
"      03z2y2x2w2v2v2u2u2u2t2t2t2t2t2t2t2t2t2t2t2t2t2t2t2t2t2t2t2t2t2t2u2u2u2v2v2w2x2y2z2s2      ",
"      r2q2z2p2w2v2v2o2o2n2n2n2n2n2n2n2n2n2n2n2n2n2n2n2n2n2n2n2n2n2n2n2n2o2o2v2v2w2p2z2q2r2      ",
"      m2l2k2p2j2o2i2h2h2g2g2g2g2g2g2g2g2g2g2g2g2g2g2g2g2g2g2g2g2g2g2g2g2h2h2i2o2j2p2k2l2m2      ",
"      f2e2d2c2j2o2h2h2g2g2g2g2g2g2g2g2g2g2g2g2g2g2g2g2g2g2g2g2g2g2g2g2g2g2h2h2o2j2c2d2e2f2      ",
"      b2a2Z2Y2X2o2h2g2g2g2g2g2g2g2g2g2g2g2g2g2g2g2g2g2g2g2g2g2g2g2g2g2g2g2g2h2o2X2Y2Z2a2b2      ",
"      W2V2l2k2U2T2i2i2g2g2g2g2g2g2g2g2g2g2g2g2g2g2g2g2g2g2g2g2g2g2g2g2g2g2i2i2T2U2k2l2V2W2      ",
"      S2R2Q2W3P2O2N2M2M2M2M2M2M2M2M2M2M2M2M2M2M2M2M2M2M2M2M2M2M2M2M2M2M2M2M2N2O2P2W3Q2R2S2      ",
"      L2K2J2I2W3H2G2G2F2F2F2F2F2F2F2F2F2F2F2F2F2F2F2F2F2F2F2F2F2F2F2F2F2F2G2G2H2W3I2J2K2L2      ",
"      N2E2D2C2B2W3A2;2P2P2P2P2P2P2P2P2P2P2P2P2P2P2P2P2P2P2P2P2P2P2P2P2P2P2;2A2W3B2C2D2E2N2      ",
"      P2:2V3U3C292B282828282828282828282828282828282828282828282828282828282B292C2U3V3:2P2      ",
"      726252423222120202020202020202020202020202020202020202020202020202020212223242526272      ",
"      z1y1x152w142v1u13232323232323232323232323232323232323232323232323232u1v142w152x1y1z1      ",
"      t1s1r1q1p1o1o1n1n1n1n1n1n1n1n1n1n1n1n1n1n1n1n1n1n1n1n1n1n1n1n1n1n1n1n1o1o1p1q1r1s1t1      ",
"      n1m1l1r1k1j1j1i1i1i1i1i1i1i1i1i1i1i1i1i1i1i1i1i1i1i1i1i1i1i1i1i1i1i1i1j1j1k1r1l1m1n1      ",
"      i1h1g1l1f1k1e1e1e1e1e1e1e1e1e1e1e1e1e1e1e1e1e1e1e1e1e1e1e1e1e1e1e1e1e1e1k1f1l1g1h1i1      ",
"      d1c1h1b1a1a1Z1Z1Z1Z1Z1Z1Z1Z1Z1Z1Z1Z1Z1Z1Z1Z1Z1Z1Z1Z1Z1Z1Z1Z1Z1Z1Z1Z1Z1Z1a1a1b1h1c1d1      ",
"      f1Y1X1W1V1g1g1U1U1U1U1U1U1U1U1U1U1U1U1U1U1U1U1U1U1U1U1U1U1U1U1U1U1U1U1g1g1V1W1X1Y1f1      ",
"      T1S1R1Q1W1P1O1O1O1O1O1O1O1O1O1O1O1O1O1O1O1O1O1O1O1O1O1O1O1O1O1O1O1O1O1O1P1W1Q1R1S1T1      ",
"      N1M1L1S1K1J1Q1Q1I1I1I1I1I1I1I1I1I1I1I1I1I1I1I1I1I1I1I1I1I1I1I1I1I1I1Q1Q1J1K1S1L1M1N1      ",
"      H1G1F1E1D1C1H1H1H1H1H1H1H1H1H1H1H1H1H1H1H1H1H1H1H1H1H1H1H1H1H1H1H1H1H1H1C1D1E1F1G1H1      ",
"      L1B1A1M1M1L1L1L1L1L1L1L1L1L1L1L1L1L1L1L1L1L1L1L1L1L1L1L1L1L1L1L1L1L1L1L1L1M1M1A1B1L1      ",
"      ;1:191A1G18181F1F1F1F1F1F1F1F1F1F1F1F1F1F1F1F1F1F1F1F1F1F1F1F1F1F1F1F18181G1A191:1;1      ",
"      A17161:1:15141414141414141414141414141414141414141414141414141414141414151:1:16171A1      ",
"      312111016161z0z0z0z0z0z0z0z0z0z0z0z0z0z0z0z0z0z0z0z0z0z0z0z0z0z0z0z0z0z0616101112131      ",
"      21y0x0w021v0v0u0u0u0u0u0u0u0u0u0u0u0u0u0u0u0u0u0u0u0u0u0u0u0u0u0u0u0u0v0v021w0x0y021      ",
"      t0s0r0q0t0x0x0x0x0x0x0x0x0x0x0x0x0x0x0x0x0x0x0x0x0x0x0x0x0x0x0x0x0x0x0x0x0t0q0r0s0t0      ",
"      p0o0n0m0l0k0k0k0k0k0k0k0k0k0k0k0k0k0k0k0k0k0k0k0k0k0k0k0k0k0k0k0k0k0k0k0k0l0m0n0o0p0      ",
"      j0i0h0h0g0g0g0g0g0g0g0g0g0g0g0g0g0g0g0g0g0g0g0g0g0g0g0g0g0g0g0g0g0g0g0g0g0g0h0h0i0j0      ",
"      f0e0d0c0c0c0b0b0b0b0b0b0b0b0b0b0b0b0b0b0b0b0b0b0b0b0b0b0b0b0b0b0b0b0b0b0c0c0c0d0e0f0      ",
"      a0Z0Z0Y0Y0Y0e0e0e0e0e0e0e0e0e0e0e0e0e0e0e0e0e0e0e0e0e0e0e0e0e0e0e0e0e0e0Y0Y0Y0Z0Z0a0      ",
"      X0W0W0W0W0V0V0V0V0V0V0V0V0V0V0V0V0V0V0V0V0V0V0V0V0V0V0V0V0V0V0V0V0V0V0V0V0W0W0W0W0X0      ",
"      U0T0S0S0S0S0S0S0S0S0S0S0S0S0S0S0S0S0S0S0S0S0S0S0S0S0S0S0S0S0S0S0S0S0S0S0S0S0S0S0T0U0      ",
"      R0Q0Q0Q0Q0P0P0P0P0P0P0P0P0P0P0P0P0P0P0P0P0P0P0P0P0P0P0P0P0P0P0P0P0P0P0P0P0Q0Q0Q0Q0O0      ",
"      N0S0M0L0L0L0L0L0L0L0L0L0L0L0L0L0L0L0L0L0L0L0L0L0L0L0L0L0L0L0L0L0L0L0L0L0L0L0L0M0S0K0      ",
"      J0K0I0H0G0F0E0D0C0B0A0;0:090807060504030202030405060708090:0;0A0B0C0D0E0F0G0H0I010J0      ",
"        00000000000000000000000000000000000000000000000000000000000000000000000000000000        ",
"                                                                                                ",
"                                                                                                ",
"                                                                                                "};
